%TF.GenerationSoftware,KiCad,Pcbnew,8.0.4*%
%TF.CreationDate,2024-08-22T22:54:14-07:00*%
%TF.ProjectId,GalaxySparkles,47616c61-7879-4537-9061-726b6c65732e,rev?*%
%TF.SameCoordinates,Original*%
%TF.FileFunction,Paste,Top*%
%TF.FilePolarity,Positive*%
%FSLAX46Y46*%
G04 Gerber Fmt 4.6, Leading zero omitted, Abs format (unit mm)*
G04 Created by KiCad (PCBNEW 8.0.4) date 2024-08-22 22:54:14*
%MOMM*%
%LPD*%
G01*
G04 APERTURE LIST*
G04 Aperture macros list*
%AMRoundRect*
0 Rectangle with rounded corners*
0 $1 Rounding radius*
0 $2 $3 $4 $5 $6 $7 $8 $9 X,Y pos of 4 corners*
0 Add a 4 corners polygon primitive as box body*
4,1,4,$2,$3,$4,$5,$6,$7,$8,$9,$2,$3,0*
0 Add four circle primitives for the rounded corners*
1,1,$1+$1,$2,$3*
1,1,$1+$1,$4,$5*
1,1,$1+$1,$6,$7*
1,1,$1+$1,$8,$9*
0 Add four rect primitives between the rounded corners*
20,1,$1+$1,$2,$3,$4,$5,0*
20,1,$1+$1,$4,$5,$6,$7,0*
20,1,$1+$1,$6,$7,$8,$9,0*
20,1,$1+$1,$8,$9,$2,$3,0*%
G04 Aperture macros list end*
%ADD10RoundRect,0.225000X0.225000X0.250000X-0.225000X0.250000X-0.225000X-0.250000X0.225000X-0.250000X0*%
%ADD11RoundRect,0.250000X-0.450000X0.262500X-0.450000X-0.262500X0.450000X-0.262500X0.450000X0.262500X0*%
%ADD12R,0.450000X0.450000*%
%ADD13RoundRect,0.225000X-0.250000X0.225000X-0.250000X-0.225000X0.250000X-0.225000X0.250000X0.225000X0*%
%ADD14RoundRect,0.250000X-0.625000X0.312500X-0.625000X-0.312500X0.625000X-0.312500X0.625000X0.312500X0*%
%ADD15RoundRect,0.150000X0.150000X-0.512500X0.150000X0.512500X-0.150000X0.512500X-0.150000X-0.512500X0*%
%ADD16RoundRect,0.225000X0.250000X-0.225000X0.250000X0.225000X-0.250000X0.225000X-0.250000X-0.225000X0*%
%ADD17RoundRect,0.150000X-0.512500X-0.150000X0.512500X-0.150000X0.512500X0.150000X-0.512500X0.150000X0*%
%ADD18RoundRect,0.225000X-0.225000X-0.250000X0.225000X-0.250000X0.225000X0.250000X-0.225000X0.250000X0*%
%ADD19RoundRect,0.250000X0.315000X0.315000X-0.315000X0.315000X-0.315000X-0.315000X0.315000X-0.315000X0*%
%ADD20RoundRect,0.062500X0.375000X0.062500X-0.375000X0.062500X-0.375000X-0.062500X0.375000X-0.062500X0*%
%ADD21RoundRect,0.062500X0.062500X0.375000X-0.062500X0.375000X-0.062500X-0.375000X0.062500X-0.375000X0*%
%ADD22RoundRect,0.218750X0.256250X-0.218750X0.256250X0.218750X-0.256250X0.218750X-0.256250X-0.218750X0*%
%ADD23R,1.050000X0.650000*%
%ADD24RoundRect,0.150000X0.512500X0.150000X-0.512500X0.150000X-0.512500X-0.150000X0.512500X-0.150000X0*%
%ADD25RoundRect,0.250000X0.262500X0.450000X-0.262500X0.450000X-0.262500X-0.450000X0.262500X-0.450000X0*%
%ADD26R,1.200000X1.400000*%
%ADD27RoundRect,0.250000X0.625000X-0.312500X0.625000X0.312500X-0.625000X0.312500X-0.625000X-0.312500X0*%
%ADD28RoundRect,0.250000X0.300000X0.300000X-0.300000X0.300000X-0.300000X-0.300000X0.300000X-0.300000X0*%
G04 APERTURE END LIST*
D10*
%TO.C,C14*%
X148075000Y-146390000D03*
X146525000Y-146390000D03*
%TD*%
D11*
%TO.C,R4*%
X171200000Y-98577500D03*
X171200000Y-100402500D03*
%TD*%
D12*
%TO.C,LED2-4*%
X181850899Y-78410000D03*
X182700899Y-78410000D03*
X182700899Y-79260000D03*
X181850899Y-79260000D03*
%TD*%
%TO.C,LED3-11*%
X210082534Y-57403237D03*
X209232534Y-57403237D03*
X209232534Y-56553237D03*
X210082534Y-56553237D03*
%TD*%
D13*
%TO.C,C12*%
X172700000Y-122825000D03*
X172700000Y-124375000D03*
%TD*%
D14*
%TO.C,R2*%
X199100000Y-79237500D03*
X199100000Y-82162500D03*
%TD*%
D12*
%TO.C,LED2-18*%
X194550898Y-70010000D03*
X195400898Y-70010000D03*
X195400898Y-70860000D03*
X194550898Y-70860000D03*
%TD*%
%TO.C,LED2-7*%
X173700899Y-69910002D03*
X173700899Y-70760002D03*
X172850899Y-70760002D03*
X172850899Y-69910002D03*
%TD*%
D15*
%TO.C,U5*%
X223950000Y-82307501D03*
X224900000Y-82307501D03*
X225850000Y-82307501D03*
X225850000Y-80032501D03*
X223950000Y-80032501D03*
%TD*%
D16*
%TO.C,C6*%
X190800000Y-81175000D03*
X190800000Y-79625000D03*
%TD*%
D12*
%TO.C,LED3-8*%
X204582536Y-66353237D03*
X204582536Y-67203237D03*
X203732536Y-67203237D03*
X203732536Y-66353237D03*
%TD*%
D17*
%TO.C,U4*%
X169062500Y-103590000D03*
X169062500Y-104540000D03*
X169062500Y-105490000D03*
X171337500Y-105490000D03*
X171337500Y-103590000D03*
%TD*%
D12*
%TO.C,LED3-14*%
X221132535Y-57425000D03*
X220282535Y-57425000D03*
X220282535Y-56575000D03*
X221132535Y-56575000D03*
%TD*%
%TO.C,LED1-17*%
X164624998Y-66265001D03*
X165474998Y-66265001D03*
X165474998Y-67115001D03*
X164624998Y-67115001D03*
%TD*%
%TO.C,LED3-2*%
X220182531Y-75953237D03*
X221032531Y-75953237D03*
X221032531Y-76803237D03*
X220182531Y-76803237D03*
%TD*%
%TO.C,LED2-9*%
X173800898Y-62709999D03*
X173800898Y-63559999D03*
X172950898Y-63559999D03*
X172950898Y-62709999D03*
%TD*%
%TO.C,LED1-10*%
X145524999Y-59915002D03*
X144674999Y-59915002D03*
X144674999Y-59065002D03*
X145524999Y-59065002D03*
%TD*%
D16*
%TO.C,C1*%
X205100000Y-94265000D03*
X205100000Y-92715000D03*
%TD*%
D12*
%TO.C,LED1-18*%
X164624998Y-69890000D03*
X165474998Y-69890000D03*
X165474998Y-70740000D03*
X164624998Y-70740000D03*
%TD*%
D16*
%TO.C,C13*%
X172700000Y-127875000D03*
X172700000Y-126325000D03*
%TD*%
D12*
%TO.C,LED1-2*%
X159375000Y-75865000D03*
X160225000Y-75865000D03*
X160225000Y-76715000D03*
X159375000Y-76715000D03*
%TD*%
%TO.C,LED2-14*%
X190200898Y-57675000D03*
X189350898Y-57675000D03*
X189350898Y-56825000D03*
X190200898Y-56825000D03*
%TD*%
%TO.C,LED1-5*%
X148324999Y-75865002D03*
X149174999Y-75865002D03*
X149174999Y-76715002D03*
X148324999Y-76715002D03*
%TD*%
D13*
%TO.C,C9*%
X175200000Y-101715000D03*
X175200000Y-103265000D03*
%TD*%
D12*
%TO.C,LED3-12*%
X213632532Y-55703236D03*
X212782532Y-55703236D03*
X212782532Y-54853236D03*
X213632532Y-54853236D03*
%TD*%
%TO.C,LED2-13*%
X186550898Y-55660000D03*
X185700898Y-55660000D03*
X185700898Y-54810000D03*
X186550898Y-54810000D03*
%TD*%
%TO.C,LED1-13*%
X156624999Y-55615002D03*
X155774999Y-55615002D03*
X155774999Y-54765002D03*
X156624999Y-54765002D03*
%TD*%
D18*
%TO.C,C7*%
X220225000Y-80200000D03*
X221775000Y-80200000D03*
%TD*%
D12*
%TO.C,LED2-8*%
X173700899Y-66310000D03*
X173700899Y-67160000D03*
X172850899Y-67160000D03*
X172850899Y-66310000D03*
%TD*%
D16*
%TO.C,C5*%
X158800000Y-82275000D03*
X158800000Y-80725000D03*
%TD*%
D11*
%TO.C,R3*%
X155200000Y-102577500D03*
X155200000Y-104402500D03*
%TD*%
D12*
%TO.C,LED2-15*%
X193750898Y-60060000D03*
X192900898Y-60060000D03*
X192900898Y-59210000D03*
X193750898Y-59210000D03*
%TD*%
%TO.C,LED1-15*%
X162974999Y-59965001D03*
X162974999Y-59115001D03*
X163824999Y-59115001D03*
X163824999Y-59965001D03*
%TD*%
D18*
%TO.C,C8*%
X166425000Y-100490000D03*
X167975000Y-100490000D03*
%TD*%
D12*
%TO.C,LED2-2*%
X189300898Y-75910001D03*
X190150898Y-75910001D03*
X190150898Y-76760001D03*
X189300898Y-76760001D03*
%TD*%
%TO.C,LED1-1*%
X163075000Y-73465000D03*
X163925000Y-73465000D03*
X163925000Y-74315000D03*
X163075000Y-74315000D03*
%TD*%
D19*
%TO.C,U1*%
X167400000Y-125490000D03*
X167400000Y-124090000D03*
X167400000Y-122690000D03*
X167400000Y-121290000D03*
X166000000Y-125490000D03*
X166000000Y-124090000D03*
X166000000Y-122690000D03*
X166000000Y-121290000D03*
X164600000Y-125490000D03*
X164600000Y-124090000D03*
X164600000Y-122690000D03*
X164600000Y-121290000D03*
X163200000Y-125490000D03*
X163200000Y-124090000D03*
X163200000Y-122690000D03*
X163200000Y-121290000D03*
D20*
X168737500Y-126140000D03*
X168737500Y-125640000D03*
X168737500Y-125139999D03*
X168737500Y-124640000D03*
X168737500Y-124140000D03*
X168737500Y-123640000D03*
X168737500Y-123140000D03*
X168737500Y-122640000D03*
X168737500Y-122140000D03*
X168737499Y-121640000D03*
X168737500Y-121140000D03*
X168737500Y-120640000D03*
D21*
X168050000Y-119952500D03*
X167550000Y-119952500D03*
X167049999Y-119952500D03*
X166550000Y-119952500D03*
X166050000Y-119952500D03*
X165550000Y-119952500D03*
X165050000Y-119952500D03*
X164550000Y-119952500D03*
X164050000Y-119952500D03*
X163550000Y-119952501D03*
X163050000Y-119952500D03*
X162550000Y-119952500D03*
D20*
X161862500Y-120640000D03*
X161862500Y-121140000D03*
X161862500Y-121640001D03*
X161862500Y-122140000D03*
X161862500Y-122640000D03*
X161862500Y-123140000D03*
X161862500Y-123640000D03*
X161862500Y-124140000D03*
X161862500Y-124640000D03*
X161862501Y-125140000D03*
X161862500Y-125640000D03*
X161862500Y-126140000D03*
D21*
X162550000Y-126827500D03*
X163050000Y-126827500D03*
X163550001Y-126827500D03*
X164050000Y-126827500D03*
X164550000Y-126827500D03*
X165050000Y-126827500D03*
X165550000Y-126827500D03*
X166050000Y-126827500D03*
X166550000Y-126827500D03*
X167050000Y-126827499D03*
X167550000Y-126827500D03*
X168050000Y-126827500D03*
%TD*%
D22*
%TO.C,D5*%
X168800000Y-113077500D03*
X168800000Y-111502500D03*
%TD*%
D12*
%TO.C,LED3-13*%
X217532532Y-55703236D03*
X216682532Y-55703236D03*
X216682532Y-54853236D03*
X217532532Y-54853236D03*
%TD*%
D13*
%TO.C,C15*%
X181500000Y-111915000D03*
X181500000Y-113465000D03*
%TD*%
D12*
%TO.C,LED1-3*%
X155824999Y-78365000D03*
X156674999Y-78365000D03*
X156674999Y-79215000D03*
X155824999Y-79215000D03*
%TD*%
D23*
%TO.C,SW2*%
X149175000Y-141965000D03*
X145025000Y-141965000D03*
X149175000Y-139815000D03*
X145025000Y-139815000D03*
%TD*%
D24*
%TO.C,U6*%
X178337500Y-113440000D03*
X178337500Y-112490000D03*
X178337500Y-111540000D03*
X176062500Y-111540000D03*
X176062500Y-113440000D03*
%TD*%
D12*
%TO.C,LED3-15*%
X224632535Y-60103238D03*
X223782535Y-60103238D03*
X223782535Y-59253238D03*
X224632535Y-59253238D03*
%TD*%
%TO.C,LED2-11*%
X179100900Y-57360001D03*
X178250900Y-57360001D03*
X178250900Y-56510001D03*
X179100900Y-56510001D03*
%TD*%
D25*
%TO.C,R8*%
X169912500Y-145490000D03*
X168087500Y-145490000D03*
%TD*%
D12*
%TO.C,LED2-3*%
X185750900Y-78410000D03*
X186600900Y-78410000D03*
X186600900Y-79260000D03*
X185750900Y-79260000D03*
%TD*%
%TO.C,LED1-16*%
X164624999Y-62665001D03*
X165474999Y-62665001D03*
X165474999Y-63515001D03*
X164624999Y-63515001D03*
%TD*%
%TO.C,LED3-16*%
X225482533Y-62753237D03*
X226332533Y-62753237D03*
X226332533Y-63603237D03*
X225482533Y-63603237D03*
%TD*%
%TO.C,LED1-6*%
X144674999Y-73465002D03*
X145524999Y-73465002D03*
X145524999Y-74315002D03*
X144674999Y-74315002D03*
%TD*%
%TO.C,LED1-8*%
X143775000Y-66265002D03*
X143775000Y-67115002D03*
X142925000Y-67115002D03*
X142925000Y-66265002D03*
%TD*%
%TO.C,LED2-12*%
X182700899Y-55660002D03*
X181850899Y-55660002D03*
X181850899Y-54810002D03*
X182700899Y-54810002D03*
%TD*%
%TO.C,LED2-6*%
X174600898Y-73510000D03*
X175450898Y-73510000D03*
X175450898Y-74360000D03*
X174600898Y-74360000D03*
%TD*%
D16*
%TO.C,C4*%
X205100000Y-91165000D03*
X205100000Y-89615000D03*
%TD*%
D13*
%TO.C,C10*%
X180200000Y-101715000D03*
X180200000Y-103265000D03*
%TD*%
D26*
%TO.C,Y2*%
X174350000Y-124290000D03*
X174350000Y-126490000D03*
X176050000Y-126490000D03*
X176050000Y-124290000D03*
%TD*%
D12*
%TO.C,LED3-1*%
X223882532Y-73553236D03*
X224732532Y-73553236D03*
X224732532Y-74403236D03*
X223882532Y-74403236D03*
%TD*%
D16*
%TO.C,C2*%
X205100000Y-84790000D03*
X205100000Y-83240000D03*
%TD*%
D12*
%TO.C,LED3-18*%
X225482534Y-70053236D03*
X226332534Y-70053236D03*
X226332534Y-70903236D03*
X225482534Y-70903236D03*
%TD*%
D15*
%TO.C,U3*%
X193775898Y-81872500D03*
X194725898Y-81872500D03*
X195675898Y-81872500D03*
X195675898Y-79597500D03*
X193775898Y-79597500D03*
%TD*%
D12*
%TO.C,LED3-9*%
X204682533Y-62753237D03*
X204682533Y-63603237D03*
X203832533Y-63603237D03*
X203832533Y-62753237D03*
%TD*%
D22*
%TO.C,D1*%
X156200000Y-113277500D03*
X156200000Y-111702500D03*
%TD*%
D12*
%TO.C,LED1-4*%
X151874999Y-78365001D03*
X152724999Y-78365001D03*
X152724999Y-79215001D03*
X151874999Y-79215001D03*
%TD*%
%TO.C,LED1-14*%
X160224999Y-57675000D03*
X159374999Y-57675000D03*
X159374999Y-56825000D03*
X160224999Y-56825000D03*
%TD*%
%TO.C,LED2-5*%
X178250899Y-75960000D03*
X179100899Y-75960000D03*
X179100899Y-76810000D03*
X178250899Y-76810000D03*
%TD*%
%TO.C,LED3-6*%
X205532536Y-73553239D03*
X206382536Y-73553239D03*
X206382536Y-74403239D03*
X205532536Y-74403239D03*
%TD*%
%TO.C,LED3-4*%
X212782533Y-78453235D03*
X213632533Y-78453235D03*
X213632533Y-79303235D03*
X212782533Y-79303235D03*
%TD*%
%TO.C,LED2-17*%
X194600898Y-66310000D03*
X195450898Y-66310000D03*
X195450898Y-67160000D03*
X194600898Y-67160000D03*
%TD*%
%TO.C,LED3-3*%
X216732534Y-78453234D03*
X217582534Y-78453234D03*
X217582534Y-79303234D03*
X216732534Y-79303234D03*
%TD*%
%TO.C,LED3-7*%
X204682535Y-69953236D03*
X204682535Y-70803236D03*
X203832535Y-70803236D03*
X203832535Y-69953236D03*
%TD*%
D15*
%TO.C,U2*%
X162575001Y-81852501D03*
X163525001Y-81852501D03*
X164475001Y-81852501D03*
X164475001Y-79577501D03*
X162575001Y-79577501D03*
%TD*%
D12*
%TO.C,LED3-17*%
X225582532Y-66353239D03*
X226432532Y-66353239D03*
X226432532Y-67203239D03*
X225582532Y-67203239D03*
%TD*%
D27*
%TO.C,R5*%
X224900000Y-89562500D03*
X224900000Y-86637500D03*
%TD*%
D14*
%TO.C,R9*%
X154600000Y-138137500D03*
X154600000Y-141062500D03*
%TD*%
D27*
%TO.C,R1*%
X161200000Y-113952500D03*
X161200000Y-111027500D03*
%TD*%
D12*
%TO.C,LED1-9*%
X143824999Y-62665001D03*
X143824999Y-63515001D03*
X142974999Y-63515001D03*
X142974999Y-62665001D03*
%TD*%
%TO.C,LED3-5*%
X209232537Y-76053236D03*
X210082537Y-76053236D03*
X210082537Y-76903236D03*
X209232537Y-76903236D03*
%TD*%
D28*
%TO.C,D3*%
X161600000Y-103490000D03*
X158800000Y-103490000D03*
%TD*%
D11*
%TO.C,R7*%
X166200000Y-111577500D03*
X166200000Y-113402500D03*
%TD*%
D12*
%TO.C,LED2-10*%
X175500899Y-59960001D03*
X174650899Y-59960001D03*
X174650899Y-59110001D03*
X175500899Y-59110001D03*
%TD*%
%TO.C,LED3-10*%
X206432535Y-60003236D03*
X205582535Y-60003236D03*
X205582535Y-59153236D03*
X206432535Y-59153236D03*
%TD*%
%TO.C,LED2-1*%
X193000898Y-73510001D03*
X193850898Y-73510001D03*
X193850898Y-74360001D03*
X193000898Y-74360001D03*
%TD*%
D13*
%TO.C,C3*%
X205100000Y-86415000D03*
X205100000Y-87965000D03*
%TD*%
D12*
%TO.C,LED1-11*%
X149174998Y-57315000D03*
X148324998Y-57315000D03*
X148324998Y-56465000D03*
X149174998Y-56465000D03*
%TD*%
%TO.C,LED1-12*%
X152724999Y-55615002D03*
X151874999Y-55615002D03*
X151874999Y-54765002D03*
X152724999Y-54765002D03*
%TD*%
%TO.C,LED2-16*%
X194600898Y-62709999D03*
X195450898Y-62709999D03*
X195450898Y-63559999D03*
X194600898Y-63559999D03*
%TD*%
%TO.C,LED1-7*%
X143724998Y-69865001D03*
X143724998Y-70715001D03*
X142874998Y-70715001D03*
X142874998Y-69865001D03*
%TD*%
D14*
%TO.C,R6*%
X168000000Y-81337500D03*
X168000000Y-84262500D03*
%TD*%
M02*
