%TF.GenerationSoftware,KiCad,Pcbnew,8.0.4*%
%TF.CreationDate,2024-08-28T17:44:22-07:00*%
%TF.ProjectId,GalaxySparkles,47616c61-7879-4537-9061-726b6c65732e,rev?*%
%TF.SameCoordinates,Original*%
%TF.FileFunction,Paste,Top*%
%TF.FilePolarity,Positive*%
%FSLAX46Y46*%
G04 Gerber Fmt 4.6, Leading zero omitted, Abs format (unit mm)*
G04 Created by KiCad (PCBNEW 8.0.4) date 2024-08-28 17:44:22*
%MOMM*%
%LPD*%
G01*
G04 APERTURE LIST*
G04 Aperture macros list*
%AMRoundRect*
0 Rectangle with rounded corners*
0 $1 Rounding radius*
0 $2 $3 $4 $5 $6 $7 $8 $9 X,Y pos of 4 corners*
0 Add a 4 corners polygon primitive as box body*
4,1,4,$2,$3,$4,$5,$6,$7,$8,$9,$2,$3,0*
0 Add four circle primitives for the rounded corners*
1,1,$1+$1,$2,$3*
1,1,$1+$1,$4,$5*
1,1,$1+$1,$6,$7*
1,1,$1+$1,$8,$9*
0 Add four rect primitives between the rounded corners*
20,1,$1+$1,$2,$3,$4,$5,0*
20,1,$1+$1,$4,$5,$6,$7,0*
20,1,$1+$1,$6,$7,$8,$9,0*
20,1,$1+$1,$8,$9,$2,$3,0*%
G04 Aperture macros list end*
%ADD10RoundRect,0.250000X0.262500X0.450000X-0.262500X0.450000X-0.262500X-0.450000X0.262500X-0.450000X0*%
%ADD11R,0.450000X0.450000*%
%ADD12RoundRect,0.225000X0.225000X0.250000X-0.225000X0.250000X-0.225000X-0.250000X0.225000X-0.250000X0*%
%ADD13RoundRect,0.250000X-0.450000X0.262500X-0.450000X-0.262500X0.450000X-0.262500X0.450000X0.262500X0*%
%ADD14RoundRect,0.225000X-0.250000X0.225000X-0.250000X-0.225000X0.250000X-0.225000X0.250000X0.225000X0*%
%ADD15RoundRect,0.250000X-0.625000X0.312500X-0.625000X-0.312500X0.625000X-0.312500X0.625000X0.312500X0*%
%ADD16RoundRect,0.150000X0.150000X-0.512500X0.150000X0.512500X-0.150000X0.512500X-0.150000X-0.512500X0*%
%ADD17RoundRect,0.225000X0.250000X-0.225000X0.250000X0.225000X-0.250000X0.225000X-0.250000X-0.225000X0*%
%ADD18RoundRect,0.150000X-0.512500X-0.150000X0.512500X-0.150000X0.512500X0.150000X-0.512500X0.150000X0*%
%ADD19RoundRect,0.225000X-0.225000X-0.250000X0.225000X-0.250000X0.225000X0.250000X-0.225000X0.250000X0*%
%ADD20RoundRect,0.250000X0.315000X0.315000X-0.315000X0.315000X-0.315000X-0.315000X0.315000X-0.315000X0*%
%ADD21RoundRect,0.062500X0.375000X0.062500X-0.375000X0.062500X-0.375000X-0.062500X0.375000X-0.062500X0*%
%ADD22RoundRect,0.062500X0.062500X0.375000X-0.062500X0.375000X-0.062500X-0.375000X0.062500X-0.375000X0*%
%ADD23RoundRect,0.218750X0.256250X-0.218750X0.256250X0.218750X-0.256250X0.218750X-0.256250X-0.218750X0*%
%ADD24R,1.050000X0.650000*%
%ADD25RoundRect,0.150000X0.512500X0.150000X-0.512500X0.150000X-0.512500X-0.150000X0.512500X-0.150000X0*%
%ADD26R,1.200000X1.400000*%
%ADD27RoundRect,0.250000X0.625000X-0.312500X0.625000X0.312500X-0.625000X0.312500X-0.625000X-0.312500X0*%
%ADD28RoundRect,0.250000X0.300000X0.300000X-0.300000X0.300000X-0.300000X-0.300000X0.300000X-0.300000X0*%
G04 APERTURE END LIST*
D10*
%TO.C,R10*%
X153662500Y-145250000D03*
X151837500Y-145250000D03*
%TD*%
D11*
%TO.C,LED3-24*%
X225950000Y-71525000D03*
X225950000Y-70675000D03*
X226800000Y-70675000D03*
X226800000Y-71525000D03*
%TD*%
%TO.C,LED3-23*%
X225950000Y-68625000D03*
X225950000Y-67775000D03*
X226800000Y-67775000D03*
X226800000Y-68625000D03*
%TD*%
%TO.C,LED3-22*%
X225950000Y-65800000D03*
X225950000Y-64950000D03*
X226800000Y-64950000D03*
X226800000Y-65800000D03*
%TD*%
%TO.C,LED3-21*%
X225975000Y-62925000D03*
X225975000Y-62075000D03*
X226825000Y-62075000D03*
X226825000Y-62925000D03*
%TD*%
%TO.C,LED3-20*%
X224700000Y-60100000D03*
X224700000Y-59250000D03*
X225550000Y-59250000D03*
X225550000Y-60100000D03*
%TD*%
%TO.C,LED3-19*%
X221900000Y-58700000D03*
X221900000Y-57850000D03*
X222750000Y-57850000D03*
X222750000Y-58700000D03*
%TD*%
%TO.C,LED2-24*%
X195075000Y-70775000D03*
X195925000Y-70775000D03*
X195925000Y-71625000D03*
X195075000Y-71625000D03*
%TD*%
%TO.C,LED2-23*%
X195050000Y-67975000D03*
X195900000Y-67975000D03*
X195900000Y-68825000D03*
X195050000Y-68825000D03*
%TD*%
%TO.C,LED2-22*%
X195050000Y-65175000D03*
X195900000Y-65175000D03*
X195900000Y-66025000D03*
X195050000Y-66025000D03*
%TD*%
%TO.C,LED2-21*%
X195075000Y-63125000D03*
X195075000Y-62275000D03*
X195925000Y-62275000D03*
X195925000Y-63125000D03*
%TD*%
%TO.C,LED2-20*%
X193675000Y-60325000D03*
X193675000Y-59475000D03*
X194525000Y-59475000D03*
X194525000Y-60325000D03*
%TD*%
%TO.C,LED2-19*%
X190850000Y-58600000D03*
X190850000Y-57750000D03*
X191700000Y-57750000D03*
X191700000Y-58600000D03*
%TD*%
%TO.C,LED1-24*%
X166200000Y-71625000D03*
X166200000Y-70775000D03*
X165350000Y-70775000D03*
X165350000Y-71625000D03*
%TD*%
%TO.C,LED1-23*%
X165350000Y-68825000D03*
X165350000Y-67975000D03*
X166200000Y-67975000D03*
X166200000Y-68825000D03*
%TD*%
%TO.C,LED1-22*%
X165350000Y-66000000D03*
X165350000Y-65150000D03*
X166200000Y-65150000D03*
X166200000Y-66000000D03*
%TD*%
%TO.C,LED1-21*%
X165375000Y-63125000D03*
X165375000Y-62275000D03*
X166225000Y-62275000D03*
X166225000Y-63125000D03*
%TD*%
%TO.C,LED1-20*%
X163575000Y-60425000D03*
X163575000Y-59575000D03*
X164425000Y-59575000D03*
X164425000Y-60425000D03*
%TD*%
%TO.C,LED1-19*%
X160750000Y-58800000D03*
X160750000Y-57950000D03*
X161600000Y-57950000D03*
X161600000Y-58800000D03*
%TD*%
D12*
%TO.C,C14*%
X148075000Y-146390000D03*
X146525000Y-146390000D03*
%TD*%
D13*
%TO.C,R4*%
X171200000Y-98577500D03*
X171200000Y-100402500D03*
%TD*%
D11*
%TO.C,LED2-4*%
X185275000Y-78410000D03*
X186125000Y-78410000D03*
X186125000Y-79260000D03*
X185275000Y-79260000D03*
%TD*%
%TO.C,LED3-11*%
X204425000Y-65375000D03*
X204425000Y-66225000D03*
X203575000Y-66225000D03*
X203575000Y-65375000D03*
%TD*%
D14*
%TO.C,C12*%
X172700000Y-122825000D03*
X172700000Y-124375000D03*
%TD*%
D15*
%TO.C,R2*%
X199100000Y-79237500D03*
X199100000Y-82162500D03*
%TD*%
D11*
%TO.C,LED2-18*%
X188100000Y-57100000D03*
X188100000Y-56250000D03*
X188950000Y-56250000D03*
X188950000Y-57100000D03*
%TD*%
%TO.C,LED2-7*%
X176850000Y-75350000D03*
X177700000Y-75350000D03*
X177700000Y-76200000D03*
X176850000Y-76200000D03*
%TD*%
D16*
%TO.C,U5*%
X223950000Y-82307501D03*
X224900000Y-82307501D03*
X225850000Y-82307501D03*
X225850000Y-80032501D03*
X223950000Y-80032501D03*
%TD*%
D17*
%TO.C,C6*%
X190800000Y-81175000D03*
X190800000Y-79625000D03*
%TD*%
D11*
%TO.C,LED3-8*%
X205900000Y-73850000D03*
X205900000Y-74700000D03*
X205050000Y-74700000D03*
X205050000Y-73850000D03*
%TD*%
D18*
%TO.C,U4*%
X169062500Y-103590000D03*
X169062500Y-104540000D03*
X169062500Y-105490000D03*
X171337500Y-105490000D03*
X171337500Y-103590000D03*
%TD*%
D11*
%TO.C,LED3-14*%
X208525000Y-59100000D03*
X207675000Y-59100000D03*
X207675000Y-58250000D03*
X208525000Y-58250000D03*
%TD*%
%TO.C,LED1-17*%
X155275000Y-55825000D03*
X155275000Y-54975000D03*
X156125000Y-54975000D03*
X156125000Y-55825000D03*
%TD*%
%TO.C,LED3-2*%
X221575000Y-75275000D03*
X222425000Y-75275000D03*
X222425000Y-76125000D03*
X221575000Y-76125000D03*
%TD*%
%TO.C,LED2-9*%
X173350000Y-70875000D03*
X173350000Y-71725000D03*
X172500000Y-71725000D03*
X172500000Y-70875000D03*
%TD*%
%TO.C,LED1-10*%
X143625000Y-68925000D03*
X142775000Y-68925000D03*
X142775000Y-68075000D03*
X143625000Y-68075000D03*
%TD*%
D17*
%TO.C,C1*%
X205100000Y-94265000D03*
X205100000Y-92715000D03*
%TD*%
D11*
%TO.C,LED1-18*%
X158075000Y-57225000D03*
X158075000Y-56375000D03*
X158925000Y-56375000D03*
X158925000Y-57225000D03*
%TD*%
D17*
%TO.C,C13*%
X172700000Y-127875000D03*
X172700000Y-126325000D03*
%TD*%
D11*
%TO.C,LED1-2*%
X160375000Y-75375000D03*
X161225000Y-75375000D03*
X161225000Y-76225000D03*
X160375000Y-76225000D03*
%TD*%
%TO.C,LED2-14*%
X177525000Y-58900000D03*
X176675000Y-58900000D03*
X176675000Y-58050000D03*
X177525000Y-58050000D03*
%TD*%
%TO.C,LED1-5*%
X152275000Y-78575000D03*
X153125000Y-78575000D03*
X153125000Y-79425000D03*
X152275000Y-79425000D03*
%TD*%
D14*
%TO.C,C9*%
X175200000Y-101715000D03*
X175200000Y-103265000D03*
%TD*%
D11*
%TO.C,LED3-12*%
X204450000Y-62450000D03*
X204450000Y-63300000D03*
X203600000Y-63300000D03*
X203600000Y-62450000D03*
%TD*%
%TO.C,LED2-13*%
X174600000Y-60200000D03*
X173750000Y-60200000D03*
X173750000Y-59350000D03*
X174600000Y-59350000D03*
%TD*%
%TO.C,LED1-13*%
X144925000Y-60325000D03*
X144075000Y-60325000D03*
X144075000Y-59475000D03*
X144925000Y-59475000D03*
%TD*%
D19*
%TO.C,C7*%
X220225000Y-80200000D03*
X221775000Y-80200000D03*
%TD*%
D11*
%TO.C,LED2-8*%
X175000000Y-73650000D03*
X175000000Y-74500000D03*
X174150000Y-74500000D03*
X174150000Y-73650000D03*
%TD*%
D17*
%TO.C,C5*%
X158800000Y-82275000D03*
X158800000Y-80725000D03*
%TD*%
D13*
%TO.C,R3*%
X155200000Y-102577500D03*
X155200000Y-104402500D03*
%TD*%
D11*
%TO.C,LED2-15*%
X180325000Y-57525000D03*
X179475000Y-57525000D03*
X179475000Y-56675000D03*
X180325000Y-56675000D03*
%TD*%
%TO.C,LED1-15*%
X149575000Y-57225000D03*
X149575000Y-56375000D03*
X150425000Y-56375000D03*
X150425000Y-57225000D03*
%TD*%
D19*
%TO.C,C8*%
X166425000Y-100490000D03*
X167975000Y-100490000D03*
%TD*%
D11*
%TO.C,LED2-2*%
X190675000Y-75050000D03*
X191525000Y-75050000D03*
X191525000Y-75900000D03*
X190675000Y-75900000D03*
%TD*%
%TO.C,LED1-1*%
X163075000Y-73465000D03*
X163925000Y-73465000D03*
X163925000Y-74315000D03*
X163075000Y-74315000D03*
%TD*%
D20*
%TO.C,U1*%
X167400000Y-125490000D03*
X167400000Y-124090000D03*
X167400000Y-122690000D03*
X167400000Y-121290000D03*
X166000000Y-125490000D03*
X166000000Y-124090000D03*
X166000000Y-122690000D03*
X166000000Y-121290000D03*
X164600000Y-125490000D03*
X164600000Y-124090000D03*
X164600000Y-122690000D03*
X164600000Y-121290000D03*
X163200000Y-125490000D03*
X163200000Y-124090000D03*
X163200000Y-122690000D03*
X163200000Y-121290000D03*
D21*
X168737500Y-126140000D03*
X168737500Y-125640000D03*
X168737500Y-125140000D03*
X168737500Y-124640000D03*
X168737500Y-124140000D03*
X168737500Y-123640000D03*
X168737500Y-123140000D03*
X168737500Y-122640000D03*
X168737500Y-122140000D03*
X168737500Y-121640000D03*
X168737500Y-121140000D03*
X168737500Y-120640000D03*
D22*
X168050000Y-119952500D03*
X167550000Y-119952500D03*
X167050000Y-119952500D03*
X166550000Y-119952500D03*
X166050000Y-119952500D03*
X165550000Y-119952500D03*
X165050000Y-119952500D03*
X164550000Y-119952500D03*
X164050000Y-119952500D03*
X163550000Y-119952500D03*
X163050000Y-119952500D03*
X162550000Y-119952500D03*
D21*
X161862500Y-120640000D03*
X161862500Y-121140000D03*
X161862500Y-121640000D03*
X161862500Y-122140000D03*
X161862500Y-122640000D03*
X161862500Y-123140000D03*
X161862500Y-123640000D03*
X161862500Y-124140000D03*
X161862500Y-124640000D03*
X161862500Y-125140000D03*
X161862500Y-125640000D03*
X161862500Y-126140000D03*
D22*
X162550000Y-126827500D03*
X163050000Y-126827500D03*
X163550000Y-126827500D03*
X164050000Y-126827500D03*
X164550000Y-126827500D03*
X165050000Y-126827500D03*
X165550000Y-126827500D03*
X166050000Y-126827500D03*
X166550000Y-126827500D03*
X167050000Y-126827500D03*
X167550000Y-126827500D03*
X168050000Y-126827500D03*
%TD*%
D23*
%TO.C,D5*%
X168800000Y-113077500D03*
X168800000Y-111502500D03*
%TD*%
D11*
%TO.C,LED3-13*%
X205650000Y-60500000D03*
X204800000Y-60500000D03*
X204800000Y-59650000D03*
X205650000Y-59650000D03*
%TD*%
D14*
%TO.C,C15*%
X181500000Y-111915000D03*
X181500000Y-113465000D03*
%TD*%
D11*
%TO.C,LED1-3*%
X157675000Y-76775000D03*
X158525000Y-76775000D03*
X158525000Y-77625000D03*
X157675000Y-77625000D03*
%TD*%
D24*
%TO.C,SW2*%
X149175000Y-141965000D03*
X145025000Y-141965000D03*
X149175000Y-139815000D03*
X145025000Y-139815000D03*
%TD*%
D25*
%TO.C,U6*%
X178337500Y-113440000D03*
X178337500Y-112490000D03*
X178337500Y-111540000D03*
X176062500Y-111540000D03*
X176062500Y-113440000D03*
%TD*%
D11*
%TO.C,LED3-15*%
X211425000Y-57700000D03*
X210575000Y-57700000D03*
X210575000Y-56850000D03*
X211425000Y-56850000D03*
%TD*%
D10*
%TO.C,R8*%
X169912500Y-145490000D03*
X168087500Y-145490000D03*
%TD*%
D11*
%TO.C,LED2-3*%
X187975000Y-76950000D03*
X188825000Y-76950000D03*
X188825000Y-77800000D03*
X187975000Y-77800000D03*
%TD*%
%TO.C,LED1-16*%
X152375000Y-55825000D03*
X152375000Y-54975000D03*
X153225000Y-54975000D03*
X153225000Y-55825000D03*
%TD*%
%TO.C,LED3-16*%
X214150000Y-55800000D03*
X213300000Y-55800000D03*
X213300000Y-54950000D03*
X214150000Y-54950000D03*
%TD*%
%TO.C,LED1-6*%
X149475000Y-76775000D03*
X149475000Y-77625000D03*
X150325000Y-77625000D03*
X150325000Y-76775000D03*
%TD*%
%TO.C,LED1-8*%
X144925000Y-73975000D03*
X144925000Y-74825000D03*
X144075000Y-74825000D03*
X144075000Y-73975000D03*
%TD*%
%TO.C,LED2-12*%
X173250000Y-62150000D03*
X173250000Y-63000000D03*
X172400000Y-63000000D03*
X172400000Y-62150000D03*
%TD*%
%TO.C,LED2-6*%
X179550000Y-76950000D03*
X180400000Y-76950000D03*
X180400000Y-77800000D03*
X179550000Y-77800000D03*
%TD*%
D17*
%TO.C,C4*%
X205100000Y-91165000D03*
X205100000Y-89615000D03*
%TD*%
D14*
%TO.C,C10*%
X180200000Y-101715000D03*
X180200000Y-103265000D03*
%TD*%
D26*
%TO.C,Y2*%
X174350000Y-124290000D03*
X174350000Y-126490000D03*
X176050000Y-126490000D03*
X176050000Y-124290000D03*
%TD*%
D11*
%TO.C,LED3-1*%
X224275000Y-73553236D03*
X225125000Y-73553236D03*
X225125000Y-74403236D03*
X224275000Y-74403236D03*
%TD*%
D17*
%TO.C,C2*%
X205100000Y-84790000D03*
X205100000Y-83240000D03*
%TD*%
D11*
%TO.C,LED3-18*%
X219075000Y-57225000D03*
X219075000Y-56375000D03*
X219925000Y-56375000D03*
X219925000Y-57225000D03*
%TD*%
D16*
%TO.C,U3*%
X193775898Y-81872500D03*
X194725898Y-81872500D03*
X195675898Y-81872500D03*
X195675898Y-79597500D03*
X193775898Y-79597500D03*
%TD*%
D11*
%TO.C,LED3-9*%
X204450000Y-71050000D03*
X204450000Y-71900000D03*
X203600000Y-71900000D03*
X203600000Y-71050000D03*
%TD*%
D23*
%TO.C,D1*%
X156200000Y-113277500D03*
X156200000Y-111702500D03*
%TD*%
D11*
%TO.C,LED1-4*%
X154975000Y-78575000D03*
X155825000Y-78575000D03*
X155825000Y-79425000D03*
X154975000Y-79425000D03*
%TD*%
%TO.C,LED1-14*%
X147725000Y-58725000D03*
X146875000Y-58725000D03*
X146875000Y-57875000D03*
X147725000Y-57875000D03*
%TD*%
%TO.C,LED2-5*%
X182250000Y-78450000D03*
X183100000Y-78450000D03*
X183100000Y-79300000D03*
X182250000Y-79300000D03*
%TD*%
%TO.C,LED3-6*%
X211425000Y-76850000D03*
X211425000Y-77700000D03*
X210575000Y-77700000D03*
X210575000Y-76850000D03*
%TD*%
%TO.C,LED3-4*%
X216175000Y-78350000D03*
X217025000Y-78350000D03*
X217025000Y-79200000D03*
X216175000Y-79200000D03*
%TD*%
%TO.C,LED2-17*%
X185300000Y-55700000D03*
X185300000Y-54850000D03*
X186150000Y-54850000D03*
X186150000Y-55700000D03*
%TD*%
%TO.C,LED3-3*%
X218875000Y-76750000D03*
X219725000Y-76750000D03*
X219725000Y-77600000D03*
X218875000Y-77600000D03*
%TD*%
%TO.C,LED3-7*%
X208700000Y-75350000D03*
X208700000Y-76200000D03*
X207850000Y-76200000D03*
X207850000Y-75350000D03*
%TD*%
D16*
%TO.C,U2*%
X162575001Y-81852501D03*
X163525001Y-81852501D03*
X164475001Y-81852501D03*
X164475001Y-79577501D03*
X162575001Y-79577501D03*
%TD*%
D11*
%TO.C,LED3-17*%
X217125000Y-55825000D03*
X216275000Y-55825000D03*
X216275000Y-54975000D03*
X217125000Y-54975000D03*
%TD*%
D27*
%TO.C,R5*%
X224900000Y-89562500D03*
X224900000Y-86637500D03*
%TD*%
D15*
%TO.C,R9*%
X154600000Y-138137500D03*
X154600000Y-141062500D03*
%TD*%
D27*
%TO.C,R1*%
X161200000Y-113952500D03*
X161200000Y-111027500D03*
%TD*%
D11*
%TO.C,LED1-9*%
X143625000Y-71075000D03*
X143625000Y-71925000D03*
X142775000Y-71925000D03*
X142775000Y-71075000D03*
%TD*%
%TO.C,LED3-5*%
X213350000Y-78350000D03*
X214200000Y-78350000D03*
X214200000Y-79200000D03*
X213350000Y-79200000D03*
%TD*%
D28*
%TO.C,D3*%
X161600000Y-103490000D03*
X158800000Y-103490000D03*
%TD*%
D13*
%TO.C,R7*%
X166200000Y-111577500D03*
X166200000Y-113402500D03*
%TD*%
D11*
%TO.C,LED2-10*%
X173300000Y-67975000D03*
X173300000Y-68825000D03*
X172450000Y-68825000D03*
X172450000Y-67975000D03*
%TD*%
%TO.C,LED3-10*%
X204450000Y-68175000D03*
X204450000Y-69025000D03*
X203600000Y-69025000D03*
X203600000Y-68175000D03*
%TD*%
%TO.C,LED2-1*%
X193375000Y-73510001D03*
X194225000Y-73510001D03*
X194225000Y-74360001D03*
X193375000Y-74360001D03*
%TD*%
D14*
%TO.C,C3*%
X205100000Y-86415000D03*
X205100000Y-87965000D03*
%TD*%
D11*
%TO.C,LED1-11*%
X143625000Y-66025000D03*
X142775000Y-66025000D03*
X142775000Y-65175000D03*
X143625000Y-65175000D03*
%TD*%
%TO.C,LED1-12*%
X143625000Y-63125000D03*
X142775000Y-63125000D03*
X142775000Y-62275000D03*
X143625000Y-62275000D03*
%TD*%
%TO.C,LED2-16*%
X183125000Y-55725000D03*
X182275000Y-55725000D03*
X182275000Y-54875000D03*
X183125000Y-54875000D03*
%TD*%
%TO.C,LED1-7*%
X147625000Y-75475000D03*
X147625000Y-76325000D03*
X146775000Y-76325000D03*
X146775000Y-75475000D03*
%TD*%
D15*
%TO.C,R6*%
X168000000Y-81337500D03*
X168000000Y-84262500D03*
%TD*%
D11*
%TO.C,LED2-11*%
X173250000Y-65075000D03*
X173250000Y-65925000D03*
X172400000Y-65925000D03*
X172400000Y-65075000D03*
%TD*%
M02*
