M48
; DRILL file {KiCad 8.0.4} date 2024-08-28T17:44:22-0700
; FORMAT={-:-/ absolute / inch / decimal}
; #@! TF.CreationDate,2024-08-28T17:44:22-07:00
; #@! TF.GenerationSoftware,Kicad,Pcbnew,8.0.4
; #@! TF.FileFunction,Plated,1,2,PTH
FMAT,2
INCH
; #@! TA.AperFunction,Plated,PTH,ViaDrill
T1C0.0118
; #@! TA.AperFunction,Plated,PTH,ComponentDrill
T2C0.0315
; #@! TA.AperFunction,Plated,PTH,ComponentDrill
T3C0.0374
; #@! TA.AperFunction,Plated,PTH,ComponentDrill
T4C0.0394
; #@! TA.AperFunction,Plated,PTH,ComponentDrill
T5C0.0512
; #@! TA.AperFunction,Plated,PTH,ComponentDrill
T6C0.0906
%
G90
G05
T1
X5.9173Y-2.1693
X5.9744Y-5.4331
X5.9744Y-5.6496
X6.0197Y-2.0984
X6.1102Y-3.9957
X6.126Y-4.3303
X6.1339Y-3.1614
X6.1969Y-4.8185
X6.1969Y-5.472
X6.1998Y-3.1014
X6.2205Y-4.5823
X6.2244Y-4.8441
X6.241Y-4.5256
X6.2494Y-4.8229
X6.252Y-2.8343
X6.252Y-3.1299
X6.252Y-3.3972
X6.252Y-4.161
X6.2642Y-4.7721
X6.2657Y-4.8844
X6.2657Y-5.5429
X6.2677Y-4.6059
X6.2909Y-4.7521
X6.2913Y-5.6413
X6.3071Y-4.7161
X6.315Y-5.5902
X6.3386Y-4.6846
X6.3386Y-5.5193
X6.3419Y-5.1515
X6.3465Y-4.3106
X6.3504Y-3.0508
X6.3701Y-5.126
X6.3937Y-4.6768
X6.3937Y-5.4642
X6.4016Y-2.5783
X6.4016Y-4.4642
X6.4118Y-5.091
X6.4173Y-4.6531
X6.4193Y-5.1984
X6.4252Y-3.9169
X6.4252Y-4.1531
X6.4449Y-5.3937
X6.4528Y-2.9563
X6.4532Y-5.1198
X6.4606Y-4.1925
X6.4764Y-3.2791
X6.4843Y-4.224
X6.4854Y-5.1225
X6.502Y-4.3516
X6.502Y-5.0681
X6.5039Y-3.9563
X6.5276Y-5.1177
X6.5394Y-4.2476
X6.5488Y-5.093
X6.5551Y-5.2476
X6.5807Y-4.1138
X6.5807Y-5.1031
X6.5827Y-5.3461
X6.6131Y-5.124
X6.6181Y-5.4173
X6.6387Y-5.0991
X6.6389Y-5.5055
X6.6575Y-5.0528
X6.6575Y-5.5724
X6.6625Y-4.6728
X6.6732Y-4.4799
X6.6816Y-4.9676
X6.6929Y-5.6157
X6.6932Y-5.0522
X6.6941Y-4.8567
X6.7126Y-3.2008
X6.7126Y-4.3898
X6.7283Y-5.2201
X6.7283Y-5.0508
X6.7309Y-4.8665
X6.7362Y-4.8153
X6.7441Y-4.8972
X6.7461Y-4.1059
X6.7528Y-5.6846
X6.7559Y-4.8461
X6.7736Y-3.8415
X6.7992Y-3.7476
X6.8504Y-3.7083
X6.8504Y-4.4642
X6.878Y-5.4799
X6.8858Y-4.7949
X6.9094Y-5.5469
X6.9409Y-2.5787
X6.9764Y-3.9957
X6.9882Y-4.8346
X7.2087Y-3.1693
X7.2402Y-4.4051
X7.4291Y-5.5429
X7.5276Y-5.4898
X7.5472Y-2.5783
X7.5748Y-3.1335
X7.5748Y-3.4022
X7.6496Y-2.9642
X7.6614Y-3.4843
X7.6614Y-5.437
X7.7175Y-3.2644
X7.7559Y-3.9484
X7.7559Y-4.7949
X7.7795Y-4.5508
X7.7795Y-5.2909
X7.8031Y-4.5744
X7.8031Y-5.2043
X7.8228Y-4.4449
X7.8307Y-4.5902
X7.8307Y-5.0469
X7.8465Y-3.5272
X7.8583Y-4.6059
X7.8583Y-4.9484
X7.8883Y-4.4957
X7.8883Y-4.6207
X7.9173Y-4.3972
X7.9203Y-4.6304
X7.9213Y-3.122
X7.949Y-4.6477
X7.9567Y-3.2772
X7.9567Y-3.4843
X7.9567Y-4.0665
X7.9606Y-4.3146
X7.9811Y-4.688
X7.9843Y-4.1965
X8.0079Y-3.9917
X8.0115Y-4.7021
X8.0118Y-4.0941
X8.0354Y-4.724
X8.0591Y-3.8067
X8.0591Y-4.7752
X8.0591Y-4.9957
X8.0591Y-5.1413
X8.0906Y-4.9012
X8.0906Y-3.8972
X8.0906Y-4.7476
X8.0906Y-5.1561
X8.122Y-3.6177
X8.122Y-3.7122
X8.126Y-3.3618
X8.126Y-3.5035
X8.1969Y-2.5823
X8.2717Y-2.185
X8.4331Y-3.1732
X8.5354Y-2.0906
X8.6708Y-3.265
X8.6811Y-3.2185
X8.7205Y-3.5039
X8.7992Y-3.7008
X8.8287Y-4.2618
X8.8543Y-3.2988
X8.8622Y-2.9724
X8.8937Y-3.2988
T3
X5.9405Y-4.911
X5.9405Y-5.0094
X6.0192Y-4.911
X6.0192Y-5.0094
T4
X6.0531Y-5.8754
X6.0531Y-5.9754
X6.2528Y-5.872
X6.2528Y-5.972
X6.3528Y-5.872
X6.3528Y-5.972
X6.4528Y-5.872
X6.4528Y-5.972
X6.5528Y-5.872
X6.5528Y-5.972
X6.6528Y-5.872
X6.6528Y-5.972
X6.7528Y-5.872
X6.7528Y-5.972
X6.8528Y-5.872
X6.8528Y-5.972
X7.1287Y-5.9681
X7.2287Y-5.9681
X7.3287Y-5.9681
X7.4287Y-5.9681
X7.5287Y-5.9681
X7.6287Y-5.9681
X7.8425Y-5.972
X7.9425Y-5.972
X8.0425Y-5.972
X8.1425Y-5.972
X8.2425Y-5.972
X8.3425Y-5.972
X8.4921Y-3.4484
X8.4921Y-3.5484
X8.4921Y-3.6484
X8.4921Y-3.7484
X8.4921Y-3.8484
X8.4921Y-3.9484
X8.4921Y-4.0484
X8.4921Y-4.1484
X8.4921Y-4.2484
X8.4921Y-4.3484
X8.4921Y-4.4484
X8.4921Y-4.5484
X8.4921Y-4.6484
X8.4921Y-4.7484
X8.4921Y-4.8484
X8.4921Y-4.9484
X8.4921Y-5.0484
X8.4921Y-5.1484
X8.4921Y-5.2484
X8.4921Y-5.3484
X8.4921Y-5.4484
X8.4921Y-5.5484
X8.4921Y-5.6484
X8.4921Y-5.7484
X8.4921Y-5.8484
X8.5921Y-3.4484
X8.5921Y-3.5484
X8.5921Y-3.6484
X8.5921Y-3.7484
X8.5921Y-3.8484
X8.5921Y-3.9484
X8.5921Y-4.0484
X8.5921Y-4.1484
X8.5921Y-4.2484
X8.5921Y-4.3484
X8.5921Y-4.4484
X8.5921Y-4.5484
X8.5921Y-4.6484
X8.5921Y-4.7484
X8.5921Y-4.8484
X8.5921Y-4.9484
X8.5921Y-5.0484
X8.5921Y-5.1484
X8.5921Y-5.2484
X8.5921Y-5.3484
X8.5921Y-5.4484
X8.5921Y-5.5484
X8.5921Y-5.6484
X8.5921Y-5.7484
X8.5921Y-5.8484
X8.937Y-3.7008
X8.937Y-3.8008
X8.937Y-4.2913
X8.937Y-4.3913
X8.9469Y-5.3435
X8.9469Y-5.4435
T5
X5.7165Y-3.7988
X5.8346Y-3.7988
X5.9528Y-3.7988
T6
X5.8279Y-4.724
X5.8279Y-5.1965
T2
G00X5.6063Y-3.8185
M15
G01X5.6063Y-3.7791
M16
G05
G00X6.063Y-3.8185
M15
G01X6.063Y-3.7791
M16
G05
T4
G00X5.7205Y-4.2201
M15
G01X5.7205Y-4.2988
M16
G05
G00X5.7992Y-4.4445
M15
G01X5.878Y-4.4445
M16
G05
G00X5.9567Y-4.2201
M15
G01X5.9567Y-4.2988
M16
G05
M30
