%TF.GenerationSoftware,KiCad,Pcbnew,8.0.4*%
%TF.CreationDate,2024-08-28T17:44:22-07:00*%
%TF.ProjectId,GalaxySparkles,47616c61-7879-4537-9061-726b6c65732e,rev?*%
%TF.SameCoordinates,Original*%
%TF.FileFunction,Soldermask,Bot*%
%TF.FilePolarity,Negative*%
%FSLAX46Y46*%
G04 Gerber Fmt 4.6, Leading zero omitted, Abs format (unit mm)*
G04 Created by KiCad (PCBNEW 8.0.4) date 2024-08-28 17:44:22*
%MOMM*%
%LPD*%
G01*
G04 APERTURE LIST*
G04 APERTURE END LIST*
G36*
X215866891Y-151768804D02*
G01*
X216025413Y-151824273D01*
X216167617Y-151913626D01*
X216286374Y-152032383D01*
X216375727Y-152174587D01*
X216431196Y-152333109D01*
X216450000Y-152500000D01*
X216431196Y-152666891D01*
X216375727Y-152825413D01*
X216286374Y-152967617D01*
X216167617Y-153086374D01*
X216025413Y-153175727D01*
X215866891Y-153231196D01*
X215700000Y-153250000D01*
X215533109Y-153231196D01*
X215374587Y-153175727D01*
X215232383Y-153086374D01*
X215113626Y-152967617D01*
X215024273Y-152825413D01*
X214968804Y-152666891D01*
X214950000Y-152500000D01*
X214968804Y-152333109D01*
X215024273Y-152174587D01*
X215113626Y-152032383D01*
X215232383Y-151913626D01*
X215374587Y-151824273D01*
X215533109Y-151768804D01*
X215700000Y-151750000D01*
X215866891Y-151768804D01*
G37*
G36*
X154600000Y-152625001D02*
G01*
X152900000Y-152625001D01*
X152900000Y-150925001D01*
X154600000Y-150925001D01*
X154600000Y-152625001D01*
G37*
G36*
X159670000Y-152540000D02*
G01*
X157970000Y-152540000D01*
X157970000Y-150840000D01*
X159670000Y-150840000D01*
X159670000Y-152540000D01*
G37*
G36*
X200050000Y-152540000D02*
G01*
X198350000Y-152540000D01*
X198350000Y-150840000D01*
X200050000Y-150840000D01*
X200050000Y-152540000D01*
G37*
G36*
X161622664Y-150881602D02*
G01*
X161785000Y-150953878D01*
X161928761Y-151058327D01*
X162047664Y-151190383D01*
X162136514Y-151344274D01*
X162191425Y-151513275D01*
X162210000Y-151690000D01*
X162191425Y-151866725D01*
X162136514Y-152035726D01*
X162047664Y-152189617D01*
X161928761Y-152321673D01*
X161785000Y-152426122D01*
X161622664Y-152498398D01*
X161448849Y-152535344D01*
X161271151Y-152535344D01*
X161097336Y-152498398D01*
X160935000Y-152426122D01*
X160791239Y-152321673D01*
X160672336Y-152189617D01*
X160583486Y-152035726D01*
X160528575Y-151866725D01*
X160510000Y-151690000D01*
X160528575Y-151513275D01*
X160583486Y-151344274D01*
X160672336Y-151190383D01*
X160791239Y-151058327D01*
X160935000Y-150953878D01*
X161097336Y-150881602D01*
X161271151Y-150844656D01*
X161448849Y-150844656D01*
X161622664Y-150881602D01*
G37*
G36*
X164162664Y-150881602D02*
G01*
X164325000Y-150953878D01*
X164468761Y-151058327D01*
X164587664Y-151190383D01*
X164676514Y-151344274D01*
X164731425Y-151513275D01*
X164750000Y-151690000D01*
X164731425Y-151866725D01*
X164676514Y-152035726D01*
X164587664Y-152189617D01*
X164468761Y-152321673D01*
X164325000Y-152426122D01*
X164162664Y-152498398D01*
X163988849Y-152535344D01*
X163811151Y-152535344D01*
X163637336Y-152498398D01*
X163475000Y-152426122D01*
X163331239Y-152321673D01*
X163212336Y-152189617D01*
X163123486Y-152035726D01*
X163068575Y-151866725D01*
X163050000Y-151690000D01*
X163068575Y-151513275D01*
X163123486Y-151344274D01*
X163212336Y-151190383D01*
X163331239Y-151058327D01*
X163475000Y-150953878D01*
X163637336Y-150881602D01*
X163811151Y-150844656D01*
X163988849Y-150844656D01*
X164162664Y-150881602D01*
G37*
G36*
X166702664Y-150881602D02*
G01*
X166865000Y-150953878D01*
X167008761Y-151058327D01*
X167127664Y-151190383D01*
X167216514Y-151344274D01*
X167271425Y-151513275D01*
X167290000Y-151690000D01*
X167271425Y-151866725D01*
X167216514Y-152035726D01*
X167127664Y-152189617D01*
X167008761Y-152321673D01*
X166865000Y-152426122D01*
X166702664Y-152498398D01*
X166528849Y-152535344D01*
X166351151Y-152535344D01*
X166177336Y-152498398D01*
X166015000Y-152426122D01*
X165871239Y-152321673D01*
X165752336Y-152189617D01*
X165663486Y-152035726D01*
X165608575Y-151866725D01*
X165590000Y-151690000D01*
X165608575Y-151513275D01*
X165663486Y-151344274D01*
X165752336Y-151190383D01*
X165871239Y-151058327D01*
X166015000Y-150953878D01*
X166177336Y-150881602D01*
X166351151Y-150844656D01*
X166528849Y-150844656D01*
X166702664Y-150881602D01*
G37*
G36*
X169242664Y-150881602D02*
G01*
X169405000Y-150953878D01*
X169548761Y-151058327D01*
X169667664Y-151190383D01*
X169756514Y-151344274D01*
X169811425Y-151513275D01*
X169830000Y-151690000D01*
X169811425Y-151866725D01*
X169756514Y-152035726D01*
X169667664Y-152189617D01*
X169548761Y-152321673D01*
X169405000Y-152426122D01*
X169242664Y-152498398D01*
X169068849Y-152535344D01*
X168891151Y-152535344D01*
X168717336Y-152498398D01*
X168555000Y-152426122D01*
X168411239Y-152321673D01*
X168292336Y-152189617D01*
X168203486Y-152035726D01*
X168148575Y-151866725D01*
X168130000Y-151690000D01*
X168148575Y-151513275D01*
X168203486Y-151344274D01*
X168292336Y-151190383D01*
X168411239Y-151058327D01*
X168555000Y-150953878D01*
X168717336Y-150881602D01*
X168891151Y-150844656D01*
X169068849Y-150844656D01*
X169242664Y-150881602D01*
G37*
G36*
X171782664Y-150881602D02*
G01*
X171945000Y-150953878D01*
X172088761Y-151058327D01*
X172207664Y-151190383D01*
X172296514Y-151344274D01*
X172351425Y-151513275D01*
X172370000Y-151690000D01*
X172351425Y-151866725D01*
X172296514Y-152035726D01*
X172207664Y-152189617D01*
X172088761Y-152321673D01*
X171945000Y-152426122D01*
X171782664Y-152498398D01*
X171608849Y-152535344D01*
X171431151Y-152535344D01*
X171257336Y-152498398D01*
X171095000Y-152426122D01*
X170951239Y-152321673D01*
X170832336Y-152189617D01*
X170743486Y-152035726D01*
X170688575Y-151866725D01*
X170670000Y-151690000D01*
X170688575Y-151513275D01*
X170743486Y-151344274D01*
X170832336Y-151190383D01*
X170951239Y-151058327D01*
X171095000Y-150953878D01*
X171257336Y-150881602D01*
X171431151Y-150844656D01*
X171608849Y-150844656D01*
X171782664Y-150881602D01*
G37*
G36*
X174322664Y-150881602D02*
G01*
X174485000Y-150953878D01*
X174628761Y-151058327D01*
X174747664Y-151190383D01*
X174836514Y-151344274D01*
X174891425Y-151513275D01*
X174910000Y-151690000D01*
X174891425Y-151866725D01*
X174836514Y-152035726D01*
X174747664Y-152189617D01*
X174628761Y-152321673D01*
X174485000Y-152426122D01*
X174322664Y-152498398D01*
X174148849Y-152535344D01*
X173971151Y-152535344D01*
X173797336Y-152498398D01*
X173635000Y-152426122D01*
X173491239Y-152321673D01*
X173372336Y-152189617D01*
X173283486Y-152035726D01*
X173228575Y-151866725D01*
X173210000Y-151690000D01*
X173228575Y-151513275D01*
X173283486Y-151344274D01*
X173372336Y-151190383D01*
X173491239Y-151058327D01*
X173635000Y-150953878D01*
X173797336Y-150881602D01*
X173971151Y-150844656D01*
X174148849Y-150844656D01*
X174322664Y-150881602D01*
G37*
G36*
X202002664Y-150881602D02*
G01*
X202165000Y-150953878D01*
X202308761Y-151058327D01*
X202427664Y-151190383D01*
X202516514Y-151344274D01*
X202571425Y-151513275D01*
X202590000Y-151690000D01*
X202571425Y-151866725D01*
X202516514Y-152035726D01*
X202427664Y-152189617D01*
X202308761Y-152321673D01*
X202165000Y-152426122D01*
X202002664Y-152498398D01*
X201828849Y-152535344D01*
X201651151Y-152535344D01*
X201477336Y-152498398D01*
X201315000Y-152426122D01*
X201171239Y-152321673D01*
X201052336Y-152189617D01*
X200963486Y-152035726D01*
X200908575Y-151866725D01*
X200890000Y-151690000D01*
X200908575Y-151513275D01*
X200963486Y-151344274D01*
X201052336Y-151190383D01*
X201171239Y-151058327D01*
X201315000Y-150953878D01*
X201477336Y-150881602D01*
X201651151Y-150844656D01*
X201828849Y-150844656D01*
X202002664Y-150881602D01*
G37*
G36*
X204542664Y-150881602D02*
G01*
X204705000Y-150953878D01*
X204848761Y-151058327D01*
X204967664Y-151190383D01*
X205056514Y-151344274D01*
X205111425Y-151513275D01*
X205130000Y-151690000D01*
X205111425Y-151866725D01*
X205056514Y-152035726D01*
X204967664Y-152189617D01*
X204848761Y-152321673D01*
X204705000Y-152426122D01*
X204542664Y-152498398D01*
X204368849Y-152535344D01*
X204191151Y-152535344D01*
X204017336Y-152498398D01*
X203855000Y-152426122D01*
X203711239Y-152321673D01*
X203592336Y-152189617D01*
X203503486Y-152035726D01*
X203448575Y-151866725D01*
X203430000Y-151690000D01*
X203448575Y-151513275D01*
X203503486Y-151344274D01*
X203592336Y-151190383D01*
X203711239Y-151058327D01*
X203855000Y-150953878D01*
X204017336Y-150881602D01*
X204191151Y-150844656D01*
X204368849Y-150844656D01*
X204542664Y-150881602D01*
G37*
G36*
X207082664Y-150881602D02*
G01*
X207245000Y-150953878D01*
X207388761Y-151058327D01*
X207507664Y-151190383D01*
X207596514Y-151344274D01*
X207651425Y-151513275D01*
X207670000Y-151690000D01*
X207651425Y-151866725D01*
X207596514Y-152035726D01*
X207507664Y-152189617D01*
X207388761Y-152321673D01*
X207245000Y-152426122D01*
X207082664Y-152498398D01*
X206908849Y-152535344D01*
X206731151Y-152535344D01*
X206557336Y-152498398D01*
X206395000Y-152426122D01*
X206251239Y-152321673D01*
X206132336Y-152189617D01*
X206043486Y-152035726D01*
X205988575Y-151866725D01*
X205970000Y-151690000D01*
X205988575Y-151513275D01*
X206043486Y-151344274D01*
X206132336Y-151190383D01*
X206251239Y-151058327D01*
X206395000Y-150953878D01*
X206557336Y-150881602D01*
X206731151Y-150844656D01*
X206908849Y-150844656D01*
X207082664Y-150881602D01*
G37*
G36*
X209622664Y-150881602D02*
G01*
X209785000Y-150953878D01*
X209928761Y-151058327D01*
X210047664Y-151190383D01*
X210136514Y-151344274D01*
X210191425Y-151513275D01*
X210210000Y-151690000D01*
X210191425Y-151866725D01*
X210136514Y-152035726D01*
X210047664Y-152189617D01*
X209928761Y-152321673D01*
X209785000Y-152426122D01*
X209622664Y-152498398D01*
X209448849Y-152535344D01*
X209271151Y-152535344D01*
X209097336Y-152498398D01*
X208935000Y-152426122D01*
X208791239Y-152321673D01*
X208672336Y-152189617D01*
X208583486Y-152035726D01*
X208528575Y-151866725D01*
X208510000Y-151690000D01*
X208528575Y-151513275D01*
X208583486Y-151344274D01*
X208672336Y-151190383D01*
X208791239Y-151058327D01*
X208935000Y-150953878D01*
X209097336Y-150881602D01*
X209271151Y-150844656D01*
X209448849Y-150844656D01*
X209622664Y-150881602D01*
G37*
G36*
X212162664Y-150881602D02*
G01*
X212325000Y-150953878D01*
X212468761Y-151058327D01*
X212587664Y-151190383D01*
X212676514Y-151344274D01*
X212731425Y-151513275D01*
X212750000Y-151690000D01*
X212731425Y-151866725D01*
X212676514Y-152035726D01*
X212587664Y-152189617D01*
X212468761Y-152321673D01*
X212325000Y-152426122D01*
X212162664Y-152498398D01*
X211988849Y-152535344D01*
X211811151Y-152535344D01*
X211637336Y-152498398D01*
X211475000Y-152426122D01*
X211331239Y-152321673D01*
X211212336Y-152189617D01*
X211123486Y-152035726D01*
X211068575Y-151866725D01*
X211050000Y-151690000D01*
X211068575Y-151513275D01*
X211123486Y-151344274D01*
X211212336Y-151190383D01*
X211331239Y-151058327D01*
X211475000Y-150953878D01*
X211637336Y-150881602D01*
X211811151Y-150844656D01*
X211988849Y-150844656D01*
X212162664Y-150881602D01*
G37*
G36*
X181920000Y-152440000D02*
G01*
X180220000Y-152440000D01*
X180220000Y-150740000D01*
X181920000Y-150740000D01*
X181920000Y-152440000D01*
G37*
G36*
X183872664Y-150781602D02*
G01*
X184035000Y-150853878D01*
X184178761Y-150958327D01*
X184297664Y-151090383D01*
X184386514Y-151244274D01*
X184441425Y-151413275D01*
X184460000Y-151590000D01*
X184441425Y-151766725D01*
X184386514Y-151935726D01*
X184297664Y-152089617D01*
X184178761Y-152221673D01*
X184035000Y-152326122D01*
X183872664Y-152398398D01*
X183698849Y-152435344D01*
X183521151Y-152435344D01*
X183347336Y-152398398D01*
X183185000Y-152326122D01*
X183041239Y-152221673D01*
X182922336Y-152089617D01*
X182833486Y-151935726D01*
X182778575Y-151766725D01*
X182760000Y-151590000D01*
X182778575Y-151413275D01*
X182833486Y-151244274D01*
X182922336Y-151090383D01*
X183041239Y-150958327D01*
X183185000Y-150853878D01*
X183347336Y-150781602D01*
X183521151Y-150744656D01*
X183698849Y-150744656D01*
X183872664Y-150781602D01*
G37*
G36*
X186412664Y-150781602D02*
G01*
X186575000Y-150853878D01*
X186718761Y-150958327D01*
X186837664Y-151090383D01*
X186926514Y-151244274D01*
X186981425Y-151413275D01*
X187000000Y-151590000D01*
X186981425Y-151766725D01*
X186926514Y-151935726D01*
X186837664Y-152089617D01*
X186718761Y-152221673D01*
X186575000Y-152326122D01*
X186412664Y-152398398D01*
X186238849Y-152435344D01*
X186061151Y-152435344D01*
X185887336Y-152398398D01*
X185725000Y-152326122D01*
X185581239Y-152221673D01*
X185462336Y-152089617D01*
X185373486Y-151935726D01*
X185318575Y-151766725D01*
X185300000Y-151590000D01*
X185318575Y-151413275D01*
X185373486Y-151244274D01*
X185462336Y-151090383D01*
X185581239Y-150958327D01*
X185725000Y-150853878D01*
X185887336Y-150781602D01*
X186061151Y-150744656D01*
X186238849Y-150744656D01*
X186412664Y-150781602D01*
G37*
G36*
X188952664Y-150781602D02*
G01*
X189115000Y-150853878D01*
X189258761Y-150958327D01*
X189377664Y-151090383D01*
X189466514Y-151244274D01*
X189521425Y-151413275D01*
X189540000Y-151590000D01*
X189521425Y-151766725D01*
X189466514Y-151935726D01*
X189377664Y-152089617D01*
X189258761Y-152221673D01*
X189115000Y-152326122D01*
X188952664Y-152398398D01*
X188778849Y-152435344D01*
X188601151Y-152435344D01*
X188427336Y-152398398D01*
X188265000Y-152326122D01*
X188121239Y-152221673D01*
X188002336Y-152089617D01*
X187913486Y-151935726D01*
X187858575Y-151766725D01*
X187840000Y-151590000D01*
X187858575Y-151413275D01*
X187913486Y-151244274D01*
X188002336Y-151090383D01*
X188121239Y-150958327D01*
X188265000Y-150853878D01*
X188427336Y-150781602D01*
X188601151Y-150744656D01*
X188778849Y-150744656D01*
X188952664Y-150781602D01*
G37*
G36*
X191492664Y-150781602D02*
G01*
X191655000Y-150853878D01*
X191798761Y-150958327D01*
X191917664Y-151090383D01*
X192006514Y-151244274D01*
X192061425Y-151413275D01*
X192080000Y-151590000D01*
X192061425Y-151766725D01*
X192006514Y-151935726D01*
X191917664Y-152089617D01*
X191798761Y-152221673D01*
X191655000Y-152326122D01*
X191492664Y-152398398D01*
X191318849Y-152435344D01*
X191141151Y-152435344D01*
X190967336Y-152398398D01*
X190805000Y-152326122D01*
X190661239Y-152221673D01*
X190542336Y-152089617D01*
X190453486Y-151935726D01*
X190398575Y-151766725D01*
X190380000Y-151590000D01*
X190398575Y-151413275D01*
X190453486Y-151244274D01*
X190542336Y-151090383D01*
X190661239Y-150958327D01*
X190805000Y-150853878D01*
X190967336Y-150781602D01*
X191141151Y-150744656D01*
X191318849Y-150744656D01*
X191492664Y-150781602D01*
G37*
G36*
X194032664Y-150781602D02*
G01*
X194195000Y-150853878D01*
X194338761Y-150958327D01*
X194457664Y-151090383D01*
X194546514Y-151244274D01*
X194601425Y-151413275D01*
X194620000Y-151590000D01*
X194601425Y-151766725D01*
X194546514Y-151935726D01*
X194457664Y-152089617D01*
X194338761Y-152221673D01*
X194195000Y-152326122D01*
X194032664Y-152398398D01*
X193858849Y-152435344D01*
X193681151Y-152435344D01*
X193507336Y-152398398D01*
X193345000Y-152326122D01*
X193201239Y-152221673D01*
X193082336Y-152089617D01*
X192993486Y-151935726D01*
X192938575Y-151766725D01*
X192920000Y-151590000D01*
X192938575Y-151413275D01*
X192993486Y-151244274D01*
X193082336Y-151090383D01*
X193201239Y-150958327D01*
X193345000Y-150853878D01*
X193507336Y-150781602D01*
X193681151Y-150744656D01*
X193858849Y-150744656D01*
X194032664Y-150781602D01*
G37*
G36*
X154012664Y-148426603D02*
G01*
X154175000Y-148498879D01*
X154318761Y-148603328D01*
X154437664Y-148735384D01*
X154526514Y-148889275D01*
X154581425Y-149058276D01*
X154600000Y-149235001D01*
X154581425Y-149411726D01*
X154526514Y-149580727D01*
X154437664Y-149734618D01*
X154318761Y-149866674D01*
X154175000Y-149971123D01*
X154012664Y-150043399D01*
X153838849Y-150080345D01*
X153661151Y-150080345D01*
X153487336Y-150043399D01*
X153325000Y-149971123D01*
X153181239Y-149866674D01*
X153062336Y-149734618D01*
X152973486Y-149580727D01*
X152918575Y-149411726D01*
X152900000Y-149235001D01*
X152918575Y-149058276D01*
X152973486Y-148889275D01*
X153062336Y-148735384D01*
X153181239Y-148603328D01*
X153325000Y-148498879D01*
X153487336Y-148426603D01*
X153661151Y-148389657D01*
X153838849Y-148389657D01*
X154012664Y-148426603D01*
G37*
G36*
X159082664Y-148341602D02*
G01*
X159245000Y-148413878D01*
X159388761Y-148518327D01*
X159507664Y-148650383D01*
X159596514Y-148804274D01*
X159651425Y-148973275D01*
X159670000Y-149150000D01*
X159651425Y-149326725D01*
X159596514Y-149495726D01*
X159507664Y-149649617D01*
X159388761Y-149781673D01*
X159245000Y-149886122D01*
X159082664Y-149958398D01*
X158908849Y-149995344D01*
X158731151Y-149995344D01*
X158557336Y-149958398D01*
X158395000Y-149886122D01*
X158251239Y-149781673D01*
X158132336Y-149649617D01*
X158043486Y-149495726D01*
X157988575Y-149326725D01*
X157970000Y-149150000D01*
X157988575Y-148973275D01*
X158043486Y-148804274D01*
X158132336Y-148650383D01*
X158251239Y-148518327D01*
X158395000Y-148413878D01*
X158557336Y-148341602D01*
X158731151Y-148304656D01*
X158908849Y-148304656D01*
X159082664Y-148341602D01*
G37*
G36*
X161622664Y-148341602D02*
G01*
X161785000Y-148413878D01*
X161928761Y-148518327D01*
X162047664Y-148650383D01*
X162136514Y-148804274D01*
X162191425Y-148973275D01*
X162210000Y-149150000D01*
X162191425Y-149326725D01*
X162136514Y-149495726D01*
X162047664Y-149649617D01*
X161928761Y-149781673D01*
X161785000Y-149886122D01*
X161622664Y-149958398D01*
X161448849Y-149995344D01*
X161271151Y-149995344D01*
X161097336Y-149958398D01*
X160935000Y-149886122D01*
X160791239Y-149781673D01*
X160672336Y-149649617D01*
X160583486Y-149495726D01*
X160528575Y-149326725D01*
X160510000Y-149150000D01*
X160528575Y-148973275D01*
X160583486Y-148804274D01*
X160672336Y-148650383D01*
X160791239Y-148518327D01*
X160935000Y-148413878D01*
X161097336Y-148341602D01*
X161271151Y-148304656D01*
X161448849Y-148304656D01*
X161622664Y-148341602D01*
G37*
G36*
X164162664Y-148341602D02*
G01*
X164325000Y-148413878D01*
X164468761Y-148518327D01*
X164587664Y-148650383D01*
X164676514Y-148804274D01*
X164731425Y-148973275D01*
X164750000Y-149150000D01*
X164731425Y-149326725D01*
X164676514Y-149495726D01*
X164587664Y-149649617D01*
X164468761Y-149781673D01*
X164325000Y-149886122D01*
X164162664Y-149958398D01*
X163988849Y-149995344D01*
X163811151Y-149995344D01*
X163637336Y-149958398D01*
X163475000Y-149886122D01*
X163331239Y-149781673D01*
X163212336Y-149649617D01*
X163123486Y-149495726D01*
X163068575Y-149326725D01*
X163050000Y-149150000D01*
X163068575Y-148973275D01*
X163123486Y-148804274D01*
X163212336Y-148650383D01*
X163331239Y-148518327D01*
X163475000Y-148413878D01*
X163637336Y-148341602D01*
X163811151Y-148304656D01*
X163988849Y-148304656D01*
X164162664Y-148341602D01*
G37*
G36*
X166702664Y-148341602D02*
G01*
X166865000Y-148413878D01*
X167008761Y-148518327D01*
X167127664Y-148650383D01*
X167216514Y-148804274D01*
X167271425Y-148973275D01*
X167290000Y-149150000D01*
X167271425Y-149326725D01*
X167216514Y-149495726D01*
X167127664Y-149649617D01*
X167008761Y-149781673D01*
X166865000Y-149886122D01*
X166702664Y-149958398D01*
X166528849Y-149995344D01*
X166351151Y-149995344D01*
X166177336Y-149958398D01*
X166015000Y-149886122D01*
X165871239Y-149781673D01*
X165752336Y-149649617D01*
X165663486Y-149495726D01*
X165608575Y-149326725D01*
X165590000Y-149150000D01*
X165608575Y-148973275D01*
X165663486Y-148804274D01*
X165752336Y-148650383D01*
X165871239Y-148518327D01*
X166015000Y-148413878D01*
X166177336Y-148341602D01*
X166351151Y-148304656D01*
X166528849Y-148304656D01*
X166702664Y-148341602D01*
G37*
G36*
X169242664Y-148341602D02*
G01*
X169405000Y-148413878D01*
X169548761Y-148518327D01*
X169667664Y-148650383D01*
X169756514Y-148804274D01*
X169811425Y-148973275D01*
X169830000Y-149150000D01*
X169811425Y-149326725D01*
X169756514Y-149495726D01*
X169667664Y-149649617D01*
X169548761Y-149781673D01*
X169405000Y-149886122D01*
X169242664Y-149958398D01*
X169068849Y-149995344D01*
X168891151Y-149995344D01*
X168717336Y-149958398D01*
X168555000Y-149886122D01*
X168411239Y-149781673D01*
X168292336Y-149649617D01*
X168203486Y-149495726D01*
X168148575Y-149326725D01*
X168130000Y-149150000D01*
X168148575Y-148973275D01*
X168203486Y-148804274D01*
X168292336Y-148650383D01*
X168411239Y-148518327D01*
X168555000Y-148413878D01*
X168717336Y-148341602D01*
X168891151Y-148304656D01*
X169068849Y-148304656D01*
X169242664Y-148341602D01*
G37*
G36*
X171782664Y-148341602D02*
G01*
X171945000Y-148413878D01*
X172088761Y-148518327D01*
X172207664Y-148650383D01*
X172296514Y-148804274D01*
X172351425Y-148973275D01*
X172370000Y-149150000D01*
X172351425Y-149326725D01*
X172296514Y-149495726D01*
X172207664Y-149649617D01*
X172088761Y-149781673D01*
X171945000Y-149886122D01*
X171782664Y-149958398D01*
X171608849Y-149995344D01*
X171431151Y-149995344D01*
X171257336Y-149958398D01*
X171095000Y-149886122D01*
X170951239Y-149781673D01*
X170832336Y-149649617D01*
X170743486Y-149495726D01*
X170688575Y-149326725D01*
X170670000Y-149150000D01*
X170688575Y-148973275D01*
X170743486Y-148804274D01*
X170832336Y-148650383D01*
X170951239Y-148518327D01*
X171095000Y-148413878D01*
X171257336Y-148341602D01*
X171431151Y-148304656D01*
X171608849Y-148304656D01*
X171782664Y-148341602D01*
G37*
G36*
X174322664Y-148341602D02*
G01*
X174485000Y-148413878D01*
X174628761Y-148518327D01*
X174747664Y-148650383D01*
X174836514Y-148804274D01*
X174891425Y-148973275D01*
X174910000Y-149150000D01*
X174891425Y-149326725D01*
X174836514Y-149495726D01*
X174747664Y-149649617D01*
X174628761Y-149781673D01*
X174485000Y-149886122D01*
X174322664Y-149958398D01*
X174148849Y-149995344D01*
X173971151Y-149995344D01*
X173797336Y-149958398D01*
X173635000Y-149886122D01*
X173491239Y-149781673D01*
X173372336Y-149649617D01*
X173283486Y-149495726D01*
X173228575Y-149326725D01*
X173210000Y-149150000D01*
X173228575Y-148973275D01*
X173283486Y-148804274D01*
X173372336Y-148650383D01*
X173491239Y-148518327D01*
X173635000Y-148413878D01*
X173797336Y-148341602D01*
X173971151Y-148304656D01*
X174148849Y-148304656D01*
X174322664Y-148341602D01*
G37*
G36*
X215962664Y-147741602D02*
G01*
X216125000Y-147813878D01*
X216268761Y-147918327D01*
X216387664Y-148050383D01*
X216476514Y-148204274D01*
X216531425Y-148373275D01*
X216550000Y-148550000D01*
X216531425Y-148726725D01*
X216476514Y-148895726D01*
X216387664Y-149049617D01*
X216268761Y-149181673D01*
X216125000Y-149286122D01*
X215962664Y-149358398D01*
X215788849Y-149395344D01*
X215611151Y-149395344D01*
X215437336Y-149358398D01*
X215275000Y-149286122D01*
X215131239Y-149181673D01*
X215012336Y-149049617D01*
X214923486Y-148895726D01*
X214868575Y-148726725D01*
X214850000Y-148550000D01*
X214868575Y-148373275D01*
X214923486Y-148204274D01*
X215012336Y-148050383D01*
X215131239Y-147918327D01*
X215275000Y-147813878D01*
X215437336Y-147741602D01*
X215611151Y-147704656D01*
X215788849Y-147704656D01*
X215962664Y-147741602D01*
G37*
G36*
X218502664Y-147741602D02*
G01*
X218665000Y-147813878D01*
X218808761Y-147918327D01*
X218927664Y-148050383D01*
X219016514Y-148204274D01*
X219071425Y-148373275D01*
X219090000Y-148550000D01*
X219071425Y-148726725D01*
X219016514Y-148895726D01*
X218927664Y-149049617D01*
X218808761Y-149181673D01*
X218665000Y-149286122D01*
X218502664Y-149358398D01*
X218328849Y-149395344D01*
X218151151Y-149395344D01*
X217977336Y-149358398D01*
X217815000Y-149286122D01*
X217671239Y-149181673D01*
X217552336Y-149049617D01*
X217463486Y-148895726D01*
X217408575Y-148726725D01*
X217390000Y-148550000D01*
X217408575Y-148373275D01*
X217463486Y-148204274D01*
X217552336Y-148050383D01*
X217671239Y-147918327D01*
X217815000Y-147813878D01*
X217977336Y-147741602D01*
X218151151Y-147704656D01*
X218328849Y-147704656D01*
X218502664Y-147741602D01*
G37*
G36*
X221966891Y-147868804D02*
G01*
X222125413Y-147924273D01*
X222267617Y-148013626D01*
X222386374Y-148132383D01*
X222475727Y-148274587D01*
X222531196Y-148433109D01*
X222550000Y-148600000D01*
X222531196Y-148766891D01*
X222475727Y-148925413D01*
X222386374Y-149067617D01*
X222267617Y-149186374D01*
X222125413Y-149275727D01*
X221966891Y-149331196D01*
X221800000Y-149350000D01*
X221633109Y-149331196D01*
X221474587Y-149275727D01*
X221332383Y-149186374D01*
X221213626Y-149067617D01*
X221124273Y-148925413D01*
X221068804Y-148766891D01*
X221050000Y-148600000D01*
X221068804Y-148433109D01*
X221124273Y-148274587D01*
X221213626Y-148132383D01*
X221332383Y-148013626D01*
X221474587Y-147924273D01*
X221633109Y-147868804D01*
X221800000Y-147850000D01*
X221966891Y-147868804D01*
G37*
G36*
X201866891Y-147568804D02*
G01*
X202025413Y-147624273D01*
X202167617Y-147713626D01*
X202286374Y-147832383D01*
X202375727Y-147974587D01*
X202431196Y-148133109D01*
X202450000Y-148300000D01*
X202431196Y-148466891D01*
X202375727Y-148625413D01*
X202286374Y-148767617D01*
X202167617Y-148886374D01*
X202025413Y-148975727D01*
X201866891Y-149031196D01*
X201700000Y-149050000D01*
X201533109Y-149031196D01*
X201374587Y-148975727D01*
X201232383Y-148886374D01*
X201113626Y-148767617D01*
X201024273Y-148625413D01*
X200968804Y-148466891D01*
X200950000Y-148300000D01*
X200968804Y-148133109D01*
X201024273Y-147974587D01*
X201113626Y-147832383D01*
X201232383Y-147713626D01*
X201374587Y-147624273D01*
X201533109Y-147568804D01*
X201700000Y-147550000D01*
X201866891Y-147568804D01*
G37*
G36*
X183766891Y-147468804D02*
G01*
X183925413Y-147524273D01*
X184067617Y-147613626D01*
X184186374Y-147732383D01*
X184275727Y-147874587D01*
X184331196Y-148033109D01*
X184350000Y-148200000D01*
X184331196Y-148366891D01*
X184275727Y-148525413D01*
X184186374Y-148667617D01*
X184067617Y-148786374D01*
X183925413Y-148875727D01*
X183766891Y-148931196D01*
X183600000Y-148950000D01*
X183433109Y-148931196D01*
X183274587Y-148875727D01*
X183132383Y-148786374D01*
X183013626Y-148667617D01*
X182924273Y-148525413D01*
X182868804Y-148366891D01*
X182850000Y-148200000D01*
X182868804Y-148033109D01*
X182924273Y-147874587D01*
X183013626Y-147732383D01*
X183132383Y-147613626D01*
X183274587Y-147524273D01*
X183433109Y-147468804D01*
X183600000Y-147450000D01*
X183766891Y-147468804D01*
G37*
G36*
X186366891Y-147468804D02*
G01*
X186525413Y-147524273D01*
X186667617Y-147613626D01*
X186786374Y-147732383D01*
X186875727Y-147874587D01*
X186931196Y-148033109D01*
X186950000Y-148200000D01*
X186931196Y-148366891D01*
X186875727Y-148525413D01*
X186786374Y-148667617D01*
X186667617Y-148786374D01*
X186525413Y-148875727D01*
X186366891Y-148931196D01*
X186200000Y-148950000D01*
X186033109Y-148931196D01*
X185874587Y-148875727D01*
X185732383Y-148786374D01*
X185613626Y-148667617D01*
X185524273Y-148525413D01*
X185468804Y-148366891D01*
X185450000Y-148200000D01*
X185468804Y-148033109D01*
X185524273Y-147874587D01*
X185613626Y-147732383D01*
X185732383Y-147613626D01*
X185874587Y-147524273D01*
X186033109Y-147468804D01*
X186200000Y-147450000D01*
X186366891Y-147468804D01*
G37*
G36*
X193966891Y-147468804D02*
G01*
X194125413Y-147524273D01*
X194267617Y-147613626D01*
X194386374Y-147732383D01*
X194475727Y-147874587D01*
X194531196Y-148033109D01*
X194550000Y-148200000D01*
X194531196Y-148366891D01*
X194475727Y-148525413D01*
X194386374Y-148667617D01*
X194267617Y-148786374D01*
X194125413Y-148875727D01*
X193966891Y-148931196D01*
X193800000Y-148950000D01*
X193633109Y-148931196D01*
X193474587Y-148875727D01*
X193332383Y-148786374D01*
X193213626Y-148667617D01*
X193124273Y-148525413D01*
X193068804Y-148366891D01*
X193050000Y-148200000D01*
X193068804Y-148033109D01*
X193124273Y-147874587D01*
X193213626Y-147732383D01*
X193332383Y-147613626D01*
X193474587Y-147524273D01*
X193633109Y-147468804D01*
X193800000Y-147450000D01*
X193966891Y-147468804D01*
G37*
G36*
X204466891Y-147468804D02*
G01*
X204625413Y-147524273D01*
X204767617Y-147613626D01*
X204886374Y-147732383D01*
X204975727Y-147874587D01*
X205031196Y-148033109D01*
X205050000Y-148200000D01*
X205031196Y-148366891D01*
X204975727Y-148525413D01*
X204886374Y-148667617D01*
X204767617Y-148786374D01*
X204625413Y-148875727D01*
X204466891Y-148931196D01*
X204300000Y-148950000D01*
X204133109Y-148931196D01*
X203974587Y-148875727D01*
X203832383Y-148786374D01*
X203713626Y-148667617D01*
X203624273Y-148525413D01*
X203568804Y-148366891D01*
X203550000Y-148200000D01*
X203568804Y-148033109D01*
X203624273Y-147874587D01*
X203713626Y-147732383D01*
X203832383Y-147613626D01*
X203974587Y-147524273D01*
X204133109Y-147468804D01*
X204300000Y-147450000D01*
X204466891Y-147468804D01*
G37*
G36*
X212066891Y-147368804D02*
G01*
X212225413Y-147424273D01*
X212367617Y-147513626D01*
X212486374Y-147632383D01*
X212575727Y-147774587D01*
X212631196Y-147933109D01*
X212650000Y-148100000D01*
X212631196Y-148266891D01*
X212575727Y-148425413D01*
X212486374Y-148567617D01*
X212367617Y-148686374D01*
X212225413Y-148775727D01*
X212066891Y-148831196D01*
X211900000Y-148850000D01*
X211733109Y-148831196D01*
X211574587Y-148775727D01*
X211432383Y-148686374D01*
X211313626Y-148567617D01*
X211224273Y-148425413D01*
X211168804Y-148266891D01*
X211150000Y-148100000D01*
X211168804Y-147933109D01*
X211224273Y-147774587D01*
X211313626Y-147632383D01*
X211432383Y-147513626D01*
X211574587Y-147424273D01*
X211733109Y-147368804D01*
X211900000Y-147350000D01*
X212066891Y-147368804D01*
G37*
G36*
X215962664Y-145201602D02*
G01*
X216125000Y-145273878D01*
X216268761Y-145378327D01*
X216387664Y-145510383D01*
X216476514Y-145664274D01*
X216531425Y-145833275D01*
X216550000Y-146010000D01*
X216531425Y-146186725D01*
X216476514Y-146355726D01*
X216387664Y-146509617D01*
X216268761Y-146641673D01*
X216125000Y-146746122D01*
X215962664Y-146818398D01*
X215788849Y-146855344D01*
X215611151Y-146855344D01*
X215437336Y-146818398D01*
X215275000Y-146746122D01*
X215131239Y-146641673D01*
X215012336Y-146509617D01*
X214923486Y-146355726D01*
X214868575Y-146186725D01*
X214850000Y-146010000D01*
X214868575Y-145833275D01*
X214923486Y-145664274D01*
X215012336Y-145510383D01*
X215131239Y-145378327D01*
X215275000Y-145273878D01*
X215437336Y-145201602D01*
X215611151Y-145164656D01*
X215788849Y-145164656D01*
X215962664Y-145201602D01*
G37*
G36*
X218502664Y-145201602D02*
G01*
X218665000Y-145273878D01*
X218808761Y-145378327D01*
X218927664Y-145510383D01*
X219016514Y-145664274D01*
X219071425Y-145833275D01*
X219090000Y-146010000D01*
X219071425Y-146186725D01*
X219016514Y-146355726D01*
X218927664Y-146509617D01*
X218808761Y-146641673D01*
X218665000Y-146746122D01*
X218502664Y-146818398D01*
X218328849Y-146855344D01*
X218151151Y-146855344D01*
X217977336Y-146818398D01*
X217815000Y-146746122D01*
X217671239Y-146641673D01*
X217552336Y-146509617D01*
X217463486Y-146355726D01*
X217408575Y-146186725D01*
X217390000Y-146010000D01*
X217408575Y-145833275D01*
X217463486Y-145664274D01*
X217552336Y-145510383D01*
X217671239Y-145378327D01*
X217815000Y-145273878D01*
X217977336Y-145201602D01*
X218151151Y-145164656D01*
X218328849Y-145164656D01*
X218502664Y-145201602D01*
G37*
G36*
X215962664Y-142661602D02*
G01*
X216125000Y-142733878D01*
X216268761Y-142838327D01*
X216387664Y-142970383D01*
X216476514Y-143124274D01*
X216531425Y-143293275D01*
X216550000Y-143470000D01*
X216531425Y-143646725D01*
X216476514Y-143815726D01*
X216387664Y-143969617D01*
X216268761Y-144101673D01*
X216125000Y-144206122D01*
X215962664Y-144278398D01*
X215788849Y-144315344D01*
X215611151Y-144315344D01*
X215437336Y-144278398D01*
X215275000Y-144206122D01*
X215131239Y-144101673D01*
X215012336Y-143969617D01*
X214923486Y-143815726D01*
X214868575Y-143646725D01*
X214850000Y-143470000D01*
X214868575Y-143293275D01*
X214923486Y-143124274D01*
X215012336Y-142970383D01*
X215131239Y-142838327D01*
X215275000Y-142733878D01*
X215437336Y-142661602D01*
X215611151Y-142624656D01*
X215788849Y-142624656D01*
X215962664Y-142661602D01*
G37*
G36*
X218502664Y-142661602D02*
G01*
X218665000Y-142733878D01*
X218808761Y-142838327D01*
X218927664Y-142970383D01*
X219016514Y-143124274D01*
X219071425Y-143293275D01*
X219090000Y-143470000D01*
X219071425Y-143646725D01*
X219016514Y-143815726D01*
X218927664Y-143969617D01*
X218808761Y-144101673D01*
X218665000Y-144206122D01*
X218502664Y-144278398D01*
X218328849Y-144315344D01*
X218151151Y-144315344D01*
X217977336Y-144278398D01*
X217815000Y-144206122D01*
X217671239Y-144101673D01*
X217552336Y-143969617D01*
X217463486Y-143815726D01*
X217408575Y-143646725D01*
X217390000Y-143470000D01*
X217408575Y-143293275D01*
X217463486Y-143124274D01*
X217552336Y-142970383D01*
X217671239Y-142838327D01*
X217815000Y-142733878D01*
X217977336Y-142661602D01*
X218151151Y-142624656D01*
X218328849Y-142624656D01*
X218502664Y-142661602D01*
G37*
G36*
X215962664Y-140121602D02*
G01*
X216125000Y-140193878D01*
X216268761Y-140298327D01*
X216387664Y-140430383D01*
X216476514Y-140584274D01*
X216531425Y-140753275D01*
X216550000Y-140930000D01*
X216531425Y-141106725D01*
X216476514Y-141275726D01*
X216387664Y-141429617D01*
X216268761Y-141561673D01*
X216125000Y-141666122D01*
X215962664Y-141738398D01*
X215788849Y-141775344D01*
X215611151Y-141775344D01*
X215437336Y-141738398D01*
X215275000Y-141666122D01*
X215131239Y-141561673D01*
X215012336Y-141429617D01*
X214923486Y-141275726D01*
X214868575Y-141106725D01*
X214850000Y-140930000D01*
X214868575Y-140753275D01*
X214923486Y-140584274D01*
X215012336Y-140430383D01*
X215131239Y-140298327D01*
X215275000Y-140193878D01*
X215437336Y-140121602D01*
X215611151Y-140084656D01*
X215788849Y-140084656D01*
X215962664Y-140121602D01*
G37*
G36*
X218502664Y-140121602D02*
G01*
X218665000Y-140193878D01*
X218808761Y-140298327D01*
X218927664Y-140430383D01*
X219016514Y-140584274D01*
X219071425Y-140753275D01*
X219090000Y-140930000D01*
X219071425Y-141106725D01*
X219016514Y-141275726D01*
X218927664Y-141429617D01*
X218808761Y-141561673D01*
X218665000Y-141666122D01*
X218502664Y-141738398D01*
X218328849Y-141775344D01*
X218151151Y-141775344D01*
X217977336Y-141738398D01*
X217815000Y-141666122D01*
X217671239Y-141561673D01*
X217552336Y-141429617D01*
X217463486Y-141275726D01*
X217408575Y-141106725D01*
X217390000Y-140930000D01*
X217408575Y-140753275D01*
X217463486Y-140584274D01*
X217552336Y-140430383D01*
X217671239Y-140298327D01*
X217815000Y-140193878D01*
X217977336Y-140121602D01*
X218151151Y-140084656D01*
X218328849Y-140084656D01*
X218502664Y-140121602D01*
G37*
G36*
X215962664Y-137581602D02*
G01*
X216125000Y-137653878D01*
X216268761Y-137758327D01*
X216387664Y-137890383D01*
X216476514Y-138044274D01*
X216531425Y-138213275D01*
X216550000Y-138390000D01*
X216531425Y-138566725D01*
X216476514Y-138735726D01*
X216387664Y-138889617D01*
X216268761Y-139021673D01*
X216125000Y-139126122D01*
X215962664Y-139198398D01*
X215788849Y-139235344D01*
X215611151Y-139235344D01*
X215437336Y-139198398D01*
X215275000Y-139126122D01*
X215131239Y-139021673D01*
X215012336Y-138889617D01*
X214923486Y-138735726D01*
X214868575Y-138566725D01*
X214850000Y-138390000D01*
X214868575Y-138213275D01*
X214923486Y-138044274D01*
X215012336Y-137890383D01*
X215131239Y-137758327D01*
X215275000Y-137653878D01*
X215437336Y-137581602D01*
X215611151Y-137544656D01*
X215788849Y-137544656D01*
X215962664Y-137581602D01*
G37*
G36*
X218502664Y-137581602D02*
G01*
X218665000Y-137653878D01*
X218808761Y-137758327D01*
X218927664Y-137890383D01*
X219016514Y-138044274D01*
X219071425Y-138213275D01*
X219090000Y-138390000D01*
X219071425Y-138566725D01*
X219016514Y-138735726D01*
X218927664Y-138889617D01*
X218808761Y-139021673D01*
X218665000Y-139126122D01*
X218502664Y-139198398D01*
X218328849Y-139235344D01*
X218151151Y-139235344D01*
X217977336Y-139198398D01*
X217815000Y-139126122D01*
X217671239Y-139021673D01*
X217552336Y-138889617D01*
X217463486Y-138735726D01*
X217408575Y-138566725D01*
X217390000Y-138390000D01*
X217408575Y-138213275D01*
X217463486Y-138044274D01*
X217552336Y-137890383D01*
X217671239Y-137758327D01*
X217815000Y-137653878D01*
X217977336Y-137581602D01*
X218151151Y-137544656D01*
X218328849Y-137544656D01*
X218502664Y-137581602D01*
G37*
G36*
X227512664Y-137456602D02*
G01*
X227675000Y-137528878D01*
X227818761Y-137633327D01*
X227937664Y-137765383D01*
X228026514Y-137919274D01*
X228081425Y-138088275D01*
X228100000Y-138265000D01*
X228081425Y-138441725D01*
X228026514Y-138610726D01*
X227937664Y-138764617D01*
X227818761Y-138896673D01*
X227675000Y-139001122D01*
X227512664Y-139073398D01*
X227338849Y-139110344D01*
X227161151Y-139110344D01*
X226987336Y-139073398D01*
X226825000Y-139001122D01*
X226681239Y-138896673D01*
X226562336Y-138764617D01*
X226473486Y-138610726D01*
X226418575Y-138441725D01*
X226400000Y-138265000D01*
X226418575Y-138088275D01*
X226473486Y-137919274D01*
X226562336Y-137765383D01*
X226681239Y-137633327D01*
X226825000Y-137528878D01*
X226987336Y-137456602D01*
X227161151Y-137419656D01*
X227338849Y-137419656D01*
X227512664Y-137456602D01*
G37*
G36*
X215962664Y-135041602D02*
G01*
X216125000Y-135113878D01*
X216268761Y-135218327D01*
X216387664Y-135350383D01*
X216476514Y-135504274D01*
X216531425Y-135673275D01*
X216550000Y-135850000D01*
X216531425Y-136026725D01*
X216476514Y-136195726D01*
X216387664Y-136349617D01*
X216268761Y-136481673D01*
X216125000Y-136586122D01*
X215962664Y-136658398D01*
X215788849Y-136695344D01*
X215611151Y-136695344D01*
X215437336Y-136658398D01*
X215275000Y-136586122D01*
X215131239Y-136481673D01*
X215012336Y-136349617D01*
X214923486Y-136195726D01*
X214868575Y-136026725D01*
X214850000Y-135850000D01*
X214868575Y-135673275D01*
X214923486Y-135504274D01*
X215012336Y-135350383D01*
X215131239Y-135218327D01*
X215275000Y-135113878D01*
X215437336Y-135041602D01*
X215611151Y-135004656D01*
X215788849Y-135004656D01*
X215962664Y-135041602D01*
G37*
G36*
X218502664Y-135041602D02*
G01*
X218665000Y-135113878D01*
X218808761Y-135218327D01*
X218927664Y-135350383D01*
X219016514Y-135504274D01*
X219071425Y-135673275D01*
X219090000Y-135850000D01*
X219071425Y-136026725D01*
X219016514Y-136195726D01*
X218927664Y-136349617D01*
X218808761Y-136481673D01*
X218665000Y-136586122D01*
X218502664Y-136658398D01*
X218328849Y-136695344D01*
X218151151Y-136695344D01*
X217977336Y-136658398D01*
X217815000Y-136586122D01*
X217671239Y-136481673D01*
X217552336Y-136349617D01*
X217463486Y-136195726D01*
X217408575Y-136026725D01*
X217390000Y-135850000D01*
X217408575Y-135673275D01*
X217463486Y-135504274D01*
X217552336Y-135350383D01*
X217671239Y-135218327D01*
X217815000Y-135113878D01*
X217977336Y-135041602D01*
X218151151Y-135004656D01*
X218328849Y-135004656D01*
X218502664Y-135041602D01*
G37*
G36*
X228100000Y-136575000D02*
G01*
X226400000Y-136575000D01*
X226400000Y-134875000D01*
X228100000Y-134875000D01*
X228100000Y-136575000D01*
G37*
G36*
X215962664Y-132501602D02*
G01*
X216125000Y-132573878D01*
X216268761Y-132678327D01*
X216387664Y-132810383D01*
X216476514Y-132964274D01*
X216531425Y-133133275D01*
X216550000Y-133310000D01*
X216531425Y-133486725D01*
X216476514Y-133655726D01*
X216387664Y-133809617D01*
X216268761Y-133941673D01*
X216125000Y-134046122D01*
X215962664Y-134118398D01*
X215788849Y-134155344D01*
X215611151Y-134155344D01*
X215437336Y-134118398D01*
X215275000Y-134046122D01*
X215131239Y-133941673D01*
X215012336Y-133809617D01*
X214923486Y-133655726D01*
X214868575Y-133486725D01*
X214850000Y-133310000D01*
X214868575Y-133133275D01*
X214923486Y-132964274D01*
X215012336Y-132810383D01*
X215131239Y-132678327D01*
X215275000Y-132573878D01*
X215437336Y-132501602D01*
X215611151Y-132464656D01*
X215788849Y-132464656D01*
X215962664Y-132501602D01*
G37*
G36*
X218502664Y-132501602D02*
G01*
X218665000Y-132573878D01*
X218808761Y-132678327D01*
X218927664Y-132810383D01*
X219016514Y-132964274D01*
X219071425Y-133133275D01*
X219090000Y-133310000D01*
X219071425Y-133486725D01*
X219016514Y-133655726D01*
X218927664Y-133809617D01*
X218808761Y-133941673D01*
X218665000Y-134046122D01*
X218502664Y-134118398D01*
X218328849Y-134155344D01*
X218151151Y-134155344D01*
X217977336Y-134118398D01*
X217815000Y-134046122D01*
X217671239Y-133941673D01*
X217552336Y-133809617D01*
X217463486Y-133655726D01*
X217408575Y-133486725D01*
X217390000Y-133310000D01*
X217408575Y-133133275D01*
X217463486Y-132964274D01*
X217552336Y-132810383D01*
X217671239Y-132678327D01*
X217815000Y-132573878D01*
X217977336Y-132501602D01*
X218151151Y-132464656D01*
X218328849Y-132464656D01*
X218502664Y-132501602D01*
G37*
G36*
X148094641Y-129994802D02*
G01*
X148163976Y-129994802D01*
X148239193Y-130005140D01*
X148312130Y-130010357D01*
X148372169Y-130023417D01*
X148434383Y-130031969D01*
X148513919Y-130054253D01*
X148590965Y-130071014D01*
X148642976Y-130090413D01*
X148697208Y-130105608D01*
X148779196Y-130141220D01*
X148858330Y-130170736D01*
X148901824Y-130194485D01*
X148947568Y-130214355D01*
X149029865Y-130264401D01*
X149108782Y-130307493D01*
X149143653Y-130333597D01*
X149180777Y-130356173D01*
X149261050Y-130421480D01*
X149337221Y-130478501D01*
X149363762Y-130505042D01*
X149392512Y-130528432D01*
X149468282Y-130609562D01*
X149538999Y-130680279D01*
X149557869Y-130705486D01*
X149578815Y-130727914D01*
X149647507Y-130825228D01*
X149710007Y-130908718D01*
X149722189Y-130931029D01*
X149736219Y-130950904D01*
X149795253Y-131064836D01*
X149846764Y-131159170D01*
X149853521Y-131177287D01*
X149861791Y-131193247D01*
X149908625Y-131325028D01*
X149946486Y-131426535D01*
X149949302Y-131439480D01*
X149953200Y-131450448D01*
X149985480Y-131605787D01*
X150007143Y-131705370D01*
X150007651Y-131712482D01*
X150008733Y-131717686D01*
X150024269Y-131944835D01*
X150027500Y-131990000D01*
X150024269Y-132035167D01*
X150008733Y-132262313D01*
X150007651Y-132267515D01*
X150007143Y-132274630D01*
X149985475Y-132374233D01*
X149953200Y-132529551D01*
X149949302Y-132540517D01*
X149946486Y-132553465D01*
X149908618Y-132654991D01*
X149861791Y-132786752D01*
X149853522Y-132802708D01*
X149846764Y-132820830D01*
X149795243Y-132915182D01*
X149736219Y-133029095D01*
X149722192Y-133048966D01*
X149710007Y-133071282D01*
X149647494Y-133154788D01*
X149578815Y-133252085D01*
X149557872Y-133274508D01*
X149538999Y-133299721D01*
X149468268Y-133370451D01*
X149392512Y-133451567D01*
X149363768Y-133474951D01*
X149337221Y-133501499D01*
X149261034Y-133558531D01*
X149180777Y-133623826D01*
X149143660Y-133646396D01*
X149108782Y-133672507D01*
X149029849Y-133715607D01*
X148947568Y-133765644D01*
X148901833Y-133785509D01*
X148858330Y-133809264D01*
X148779180Y-133838785D01*
X148697208Y-133874391D01*
X148642987Y-133889582D01*
X148590965Y-133908986D01*
X148513903Y-133925749D01*
X148434383Y-133948030D01*
X148372179Y-133956580D01*
X148312130Y-133969643D01*
X148239189Y-133974859D01*
X148163976Y-133985198D01*
X148094641Y-133985198D01*
X148027500Y-133990000D01*
X147960359Y-133985198D01*
X147891024Y-133985198D01*
X147815810Y-133974859D01*
X147742870Y-133969643D01*
X147682821Y-133956580D01*
X147620616Y-133948030D01*
X147541092Y-133925748D01*
X147464035Y-133908986D01*
X147412015Y-133889583D01*
X147357791Y-133874391D01*
X147275812Y-133838782D01*
X147196670Y-133809264D01*
X147153170Y-133785511D01*
X147107431Y-133765644D01*
X147025140Y-133715602D01*
X146946218Y-133672507D01*
X146911343Y-133646400D01*
X146874222Y-133623826D01*
X146793952Y-133558522D01*
X146717779Y-133501499D01*
X146691236Y-133474956D01*
X146662487Y-133451567D01*
X146586716Y-133370436D01*
X146516001Y-133299721D01*
X146497131Y-133274513D01*
X146476184Y-133252085D01*
X146407487Y-133154764D01*
X146344993Y-133071282D01*
X146332811Y-133048972D01*
X146318780Y-133029095D01*
X146259736Y-132915146D01*
X146208236Y-132820830D01*
X146201479Y-132802715D01*
X146193208Y-132786752D01*
X146146360Y-132654935D01*
X146108514Y-132553465D01*
X146105698Y-132540524D01*
X146101799Y-132529551D01*
X146069502Y-132374131D01*
X146047857Y-132274630D01*
X146047348Y-132267523D01*
X146046266Y-132262313D01*
X146030707Y-132034847D01*
X146027500Y-131990000D01*
X146030707Y-131945156D01*
X146046266Y-131717686D01*
X146047348Y-131712475D01*
X146047857Y-131705370D01*
X146069497Y-131605890D01*
X146101799Y-131450448D01*
X146105699Y-131439473D01*
X146108514Y-131426535D01*
X146146352Y-131325085D01*
X146193208Y-131193247D01*
X146201481Y-131177280D01*
X146208236Y-131159170D01*
X146259726Y-131064871D01*
X146318780Y-130950904D01*
X146332813Y-130931023D01*
X146344993Y-130908718D01*
X146407475Y-130825251D01*
X146476184Y-130727914D01*
X146497134Y-130705480D01*
X146516001Y-130680279D01*
X146586702Y-130609577D01*
X146662487Y-130528432D01*
X146691241Y-130505038D01*
X146717779Y-130478501D01*
X146793937Y-130421489D01*
X146874222Y-130356173D01*
X146911350Y-130333594D01*
X146946218Y-130307493D01*
X147025124Y-130264406D01*
X147107431Y-130214355D01*
X147153179Y-130194483D01*
X147196670Y-130170736D01*
X147275796Y-130141223D01*
X147357791Y-130105608D01*
X147412026Y-130090412D01*
X147464035Y-130071014D01*
X147541076Y-130054254D01*
X147620616Y-130031969D01*
X147682831Y-130023417D01*
X147742870Y-130010357D01*
X147815806Y-130005140D01*
X147891024Y-129994802D01*
X147960359Y-129994802D01*
X148027500Y-129990000D01*
X148094641Y-129994802D01*
G37*
G36*
X215962664Y-129961602D02*
G01*
X216125000Y-130033878D01*
X216268761Y-130138327D01*
X216387664Y-130270383D01*
X216476514Y-130424274D01*
X216531425Y-130593275D01*
X216550000Y-130770000D01*
X216531425Y-130946725D01*
X216476514Y-131115726D01*
X216387664Y-131269617D01*
X216268761Y-131401673D01*
X216125000Y-131506122D01*
X215962664Y-131578398D01*
X215788849Y-131615344D01*
X215611151Y-131615344D01*
X215437336Y-131578398D01*
X215275000Y-131506122D01*
X215131239Y-131401673D01*
X215012336Y-131269617D01*
X214923486Y-131115726D01*
X214868575Y-130946725D01*
X214850000Y-130770000D01*
X214868575Y-130593275D01*
X214923486Y-130424274D01*
X215012336Y-130270383D01*
X215131239Y-130138327D01*
X215275000Y-130033878D01*
X215437336Y-129961602D01*
X215611151Y-129924656D01*
X215788849Y-129924656D01*
X215962664Y-129961602D01*
G37*
G36*
X218502664Y-129961602D02*
G01*
X218665000Y-130033878D01*
X218808761Y-130138327D01*
X218927664Y-130270383D01*
X219016514Y-130424274D01*
X219071425Y-130593275D01*
X219090000Y-130770000D01*
X219071425Y-130946725D01*
X219016514Y-131115726D01*
X218927664Y-131269617D01*
X218808761Y-131401673D01*
X218665000Y-131506122D01*
X218502664Y-131578398D01*
X218328849Y-131615344D01*
X218151151Y-131615344D01*
X217977336Y-131578398D01*
X217815000Y-131506122D01*
X217671239Y-131401673D01*
X217552336Y-131269617D01*
X217463486Y-131115726D01*
X217408575Y-130946725D01*
X217390000Y-130770000D01*
X217408575Y-130593275D01*
X217463486Y-130424274D01*
X217552336Y-130270383D01*
X217671239Y-130138327D01*
X217815000Y-130033878D01*
X217977336Y-129961602D01*
X218151151Y-129924656D01*
X218328849Y-129924656D01*
X218502664Y-129961602D01*
G37*
G36*
X215962664Y-127421602D02*
G01*
X216125000Y-127493878D01*
X216268761Y-127598327D01*
X216387664Y-127730383D01*
X216476514Y-127884274D01*
X216531425Y-128053275D01*
X216550000Y-128230000D01*
X216531425Y-128406725D01*
X216476514Y-128575726D01*
X216387664Y-128729617D01*
X216268761Y-128861673D01*
X216125000Y-128966122D01*
X215962664Y-129038398D01*
X215788849Y-129075344D01*
X215611151Y-129075344D01*
X215437336Y-129038398D01*
X215275000Y-128966122D01*
X215131239Y-128861673D01*
X215012336Y-128729617D01*
X214923486Y-128575726D01*
X214868575Y-128406725D01*
X214850000Y-128230000D01*
X214868575Y-128053275D01*
X214923486Y-127884274D01*
X215012336Y-127730383D01*
X215131239Y-127598327D01*
X215275000Y-127493878D01*
X215437336Y-127421602D01*
X215611151Y-127384656D01*
X215788849Y-127384656D01*
X215962664Y-127421602D01*
G37*
G36*
X218502664Y-127421602D02*
G01*
X218665000Y-127493878D01*
X218808761Y-127598327D01*
X218927664Y-127730383D01*
X219016514Y-127884274D01*
X219071425Y-128053275D01*
X219090000Y-128230000D01*
X219071425Y-128406725D01*
X219016514Y-128575726D01*
X218927664Y-128729617D01*
X218808761Y-128861673D01*
X218665000Y-128966122D01*
X218502664Y-129038398D01*
X218328849Y-129075344D01*
X218151151Y-129075344D01*
X217977336Y-129038398D01*
X217815000Y-128966122D01*
X217671239Y-128861673D01*
X217552336Y-128729617D01*
X217463486Y-128575726D01*
X217408575Y-128406725D01*
X217390000Y-128230000D01*
X217408575Y-128053275D01*
X217463486Y-127884274D01*
X217552336Y-127730383D01*
X217671239Y-127598327D01*
X217815000Y-127493878D01*
X217977336Y-127421602D01*
X218151151Y-127384656D01*
X218328849Y-127384656D01*
X218502664Y-127421602D01*
G37*
G36*
X150929311Y-126444711D02*
G01*
X150971088Y-126444711D01*
X151018218Y-126454728D01*
X151065517Y-126460058D01*
X151099908Y-126472092D01*
X151134610Y-126479468D01*
X151184617Y-126501733D01*
X151234607Y-126519225D01*
X151260628Y-126535575D01*
X151287335Y-126547466D01*
X151337133Y-126583646D01*
X151386292Y-126614535D01*
X151403944Y-126632187D01*
X151422584Y-126645730D01*
X151468665Y-126696908D01*
X151512965Y-126741208D01*
X151523154Y-126757424D01*
X151534446Y-126769965D01*
X151573073Y-126836870D01*
X151608275Y-126892893D01*
X151612670Y-126905453D01*
X151618035Y-126914746D01*
X151645510Y-126999305D01*
X151667442Y-127061983D01*
X151668273Y-127069363D01*
X151669695Y-127073738D01*
X151682576Y-127196306D01*
X151687500Y-127240000D01*
X151682576Y-127283697D01*
X151669695Y-127406261D01*
X151668273Y-127410635D01*
X151667442Y-127418017D01*
X151645505Y-127480707D01*
X151618035Y-127565253D01*
X151612671Y-127574543D01*
X151608275Y-127587107D01*
X151573066Y-127643140D01*
X151534446Y-127710034D01*
X151523156Y-127722572D01*
X151512965Y-127738792D01*
X151468655Y-127783101D01*
X151422584Y-127834269D01*
X151403948Y-127847808D01*
X151386292Y-127865465D01*
X151337123Y-127896359D01*
X151287335Y-127932533D01*
X151260634Y-127944421D01*
X151234607Y-127960775D01*
X151184607Y-127978270D01*
X151134610Y-128000531D01*
X151099914Y-128007905D01*
X151065517Y-128019942D01*
X151018215Y-128025271D01*
X150971088Y-128035289D01*
X150929311Y-128035289D01*
X150887500Y-128040000D01*
X150845689Y-128035289D01*
X150803912Y-128035289D01*
X150756784Y-128025271D01*
X150709483Y-128019942D01*
X150675086Y-128007906D01*
X150640389Y-128000531D01*
X150590387Y-127978268D01*
X150540393Y-127960775D01*
X150514368Y-127944422D01*
X150487664Y-127932533D01*
X150437869Y-127896355D01*
X150388708Y-127865465D01*
X150371054Y-127847811D01*
X150352415Y-127834269D01*
X150306333Y-127783090D01*
X150262035Y-127738792D01*
X150251845Y-127722575D01*
X150240553Y-127710034D01*
X150201920Y-127643120D01*
X150166725Y-127587107D01*
X150162330Y-127574547D01*
X150156964Y-127565253D01*
X150129480Y-127480667D01*
X150107558Y-127418017D01*
X150106726Y-127410639D01*
X150105304Y-127406261D01*
X150092408Y-127283565D01*
X150087500Y-127240000D01*
X150092408Y-127196438D01*
X150105304Y-127073738D01*
X150106726Y-127069358D01*
X150107558Y-127061983D01*
X150129475Y-126999345D01*
X150156964Y-126914746D01*
X150162331Y-126905449D01*
X150166725Y-126892893D01*
X150201913Y-126836890D01*
X150240553Y-126769965D01*
X150251847Y-126757421D01*
X150262035Y-126741208D01*
X150306326Y-126696916D01*
X150352417Y-126645728D01*
X150371059Y-126632183D01*
X150388708Y-126614535D01*
X150437854Y-126583654D01*
X150487662Y-126547467D01*
X150514373Y-126535574D01*
X150540393Y-126519225D01*
X150590377Y-126501734D01*
X150640389Y-126479468D01*
X150675092Y-126472091D01*
X150709483Y-126460058D01*
X150756781Y-126454728D01*
X150803912Y-126444711D01*
X150845689Y-126444711D01*
X150887500Y-126440000D01*
X150929311Y-126444711D01*
G37*
G36*
X153687500Y-128040000D02*
G01*
X152087500Y-128040000D01*
X152087500Y-126440000D01*
X153687500Y-126440000D01*
X153687500Y-128040000D01*
G37*
G36*
X215962664Y-124881602D02*
G01*
X216125000Y-124953878D01*
X216268761Y-125058327D01*
X216387664Y-125190383D01*
X216476514Y-125344274D01*
X216531425Y-125513275D01*
X216550000Y-125690000D01*
X216531425Y-125866725D01*
X216476514Y-126035726D01*
X216387664Y-126189617D01*
X216268761Y-126321673D01*
X216125000Y-126426122D01*
X215962664Y-126498398D01*
X215788849Y-126535344D01*
X215611151Y-126535344D01*
X215437336Y-126498398D01*
X215275000Y-126426122D01*
X215131239Y-126321673D01*
X215012336Y-126189617D01*
X214923486Y-126035726D01*
X214868575Y-125866725D01*
X214850000Y-125690000D01*
X214868575Y-125513275D01*
X214923486Y-125344274D01*
X215012336Y-125190383D01*
X215131239Y-125058327D01*
X215275000Y-124953878D01*
X215437336Y-124881602D01*
X215611151Y-124844656D01*
X215788849Y-124844656D01*
X215962664Y-124881602D01*
G37*
G36*
X218502664Y-124881602D02*
G01*
X218665000Y-124953878D01*
X218808761Y-125058327D01*
X218927664Y-125190383D01*
X219016514Y-125344274D01*
X219071425Y-125513275D01*
X219090000Y-125690000D01*
X219071425Y-125866725D01*
X219016514Y-126035726D01*
X218927664Y-126189617D01*
X218808761Y-126321673D01*
X218665000Y-126426122D01*
X218502664Y-126498398D01*
X218328849Y-126535344D01*
X218151151Y-126535344D01*
X217977336Y-126498398D01*
X217815000Y-126426122D01*
X217671239Y-126321673D01*
X217552336Y-126189617D01*
X217463486Y-126035726D01*
X217408575Y-125866725D01*
X217390000Y-125690000D01*
X217408575Y-125513275D01*
X217463486Y-125344274D01*
X217552336Y-125190383D01*
X217671239Y-125058327D01*
X217815000Y-124953878D01*
X217977336Y-124881602D01*
X218151151Y-124844656D01*
X218328849Y-124844656D01*
X218502664Y-124881602D01*
G37*
G36*
X150929311Y-123944711D02*
G01*
X150971088Y-123944711D01*
X151018218Y-123954728D01*
X151065517Y-123960058D01*
X151099908Y-123972092D01*
X151134610Y-123979468D01*
X151184617Y-124001733D01*
X151234607Y-124019225D01*
X151260628Y-124035575D01*
X151287335Y-124047466D01*
X151337133Y-124083646D01*
X151386292Y-124114535D01*
X151403944Y-124132187D01*
X151422584Y-124145730D01*
X151468665Y-124196908D01*
X151512965Y-124241208D01*
X151523154Y-124257424D01*
X151534446Y-124269965D01*
X151573073Y-124336870D01*
X151608275Y-124392893D01*
X151612670Y-124405453D01*
X151618035Y-124414746D01*
X151645510Y-124499305D01*
X151667442Y-124561983D01*
X151668273Y-124569363D01*
X151669695Y-124573738D01*
X151682576Y-124696306D01*
X151687500Y-124740000D01*
X151682576Y-124783697D01*
X151669695Y-124906261D01*
X151668273Y-124910635D01*
X151667442Y-124918017D01*
X151645505Y-124980707D01*
X151618035Y-125065253D01*
X151612671Y-125074543D01*
X151608275Y-125087107D01*
X151573066Y-125143140D01*
X151534446Y-125210034D01*
X151523156Y-125222572D01*
X151512965Y-125238792D01*
X151468655Y-125283101D01*
X151422584Y-125334269D01*
X151403948Y-125347808D01*
X151386292Y-125365465D01*
X151337123Y-125396359D01*
X151287335Y-125432533D01*
X151260634Y-125444421D01*
X151234607Y-125460775D01*
X151184607Y-125478270D01*
X151134610Y-125500531D01*
X151099914Y-125507905D01*
X151065517Y-125519942D01*
X151018215Y-125525271D01*
X150971088Y-125535289D01*
X150929311Y-125535289D01*
X150887500Y-125540000D01*
X150845689Y-125535289D01*
X150803912Y-125535289D01*
X150756784Y-125525271D01*
X150709483Y-125519942D01*
X150675086Y-125507906D01*
X150640389Y-125500531D01*
X150590387Y-125478268D01*
X150540393Y-125460775D01*
X150514368Y-125444422D01*
X150487664Y-125432533D01*
X150437869Y-125396355D01*
X150388708Y-125365465D01*
X150371054Y-125347811D01*
X150352415Y-125334269D01*
X150306333Y-125283090D01*
X150262035Y-125238792D01*
X150251845Y-125222575D01*
X150240553Y-125210034D01*
X150201920Y-125143120D01*
X150166725Y-125087107D01*
X150162330Y-125074547D01*
X150156964Y-125065253D01*
X150129480Y-124980667D01*
X150107558Y-124918017D01*
X150106726Y-124910639D01*
X150105304Y-124906261D01*
X150092408Y-124783565D01*
X150087500Y-124740000D01*
X150092408Y-124696438D01*
X150105304Y-124573738D01*
X150106726Y-124569358D01*
X150107558Y-124561983D01*
X150129475Y-124499345D01*
X150156964Y-124414746D01*
X150162331Y-124405449D01*
X150166725Y-124392893D01*
X150201913Y-124336890D01*
X150240553Y-124269965D01*
X150251847Y-124257421D01*
X150262035Y-124241208D01*
X150306326Y-124196916D01*
X150352417Y-124145728D01*
X150371059Y-124132183D01*
X150388708Y-124114535D01*
X150437854Y-124083654D01*
X150487662Y-124047467D01*
X150514373Y-124035574D01*
X150540393Y-124019225D01*
X150590377Y-124001734D01*
X150640389Y-123979468D01*
X150675092Y-123972091D01*
X150709483Y-123960058D01*
X150756781Y-123954728D01*
X150803912Y-123944711D01*
X150845689Y-123944711D01*
X150887500Y-123940000D01*
X150929311Y-123944711D01*
G37*
G36*
X152929311Y-123944711D02*
G01*
X152971088Y-123944711D01*
X153018218Y-123954728D01*
X153065517Y-123960058D01*
X153099908Y-123972092D01*
X153134610Y-123979468D01*
X153184617Y-124001733D01*
X153234607Y-124019225D01*
X153260628Y-124035575D01*
X153287335Y-124047466D01*
X153337133Y-124083646D01*
X153386292Y-124114535D01*
X153403944Y-124132187D01*
X153422584Y-124145730D01*
X153468665Y-124196908D01*
X153512965Y-124241208D01*
X153523154Y-124257424D01*
X153534446Y-124269965D01*
X153573073Y-124336870D01*
X153608275Y-124392893D01*
X153612670Y-124405453D01*
X153618035Y-124414746D01*
X153645510Y-124499305D01*
X153667442Y-124561983D01*
X153668273Y-124569363D01*
X153669695Y-124573738D01*
X153682576Y-124696306D01*
X153687500Y-124740000D01*
X153682576Y-124783697D01*
X153669695Y-124906261D01*
X153668273Y-124910635D01*
X153667442Y-124918017D01*
X153645505Y-124980707D01*
X153618035Y-125065253D01*
X153612671Y-125074543D01*
X153608275Y-125087107D01*
X153573066Y-125143140D01*
X153534446Y-125210034D01*
X153523156Y-125222572D01*
X153512965Y-125238792D01*
X153468655Y-125283101D01*
X153422584Y-125334269D01*
X153403948Y-125347808D01*
X153386292Y-125365465D01*
X153337123Y-125396359D01*
X153287335Y-125432533D01*
X153260634Y-125444421D01*
X153234607Y-125460775D01*
X153184607Y-125478270D01*
X153134610Y-125500531D01*
X153099914Y-125507905D01*
X153065517Y-125519942D01*
X153018215Y-125525271D01*
X152971088Y-125535289D01*
X152929311Y-125535289D01*
X152887500Y-125540000D01*
X152845689Y-125535289D01*
X152803912Y-125535289D01*
X152756784Y-125525271D01*
X152709483Y-125519942D01*
X152675086Y-125507906D01*
X152640389Y-125500531D01*
X152590387Y-125478268D01*
X152540393Y-125460775D01*
X152514368Y-125444422D01*
X152487664Y-125432533D01*
X152437869Y-125396355D01*
X152388708Y-125365465D01*
X152371054Y-125347811D01*
X152352415Y-125334269D01*
X152306333Y-125283090D01*
X152262035Y-125238792D01*
X152251845Y-125222575D01*
X152240553Y-125210034D01*
X152201920Y-125143120D01*
X152166725Y-125087107D01*
X152162330Y-125074547D01*
X152156964Y-125065253D01*
X152129480Y-124980667D01*
X152107558Y-124918017D01*
X152106726Y-124910639D01*
X152105304Y-124906261D01*
X152092408Y-124783565D01*
X152087500Y-124740000D01*
X152092408Y-124696438D01*
X152105304Y-124573738D01*
X152106726Y-124569358D01*
X152107558Y-124561983D01*
X152129475Y-124499345D01*
X152156964Y-124414746D01*
X152162331Y-124405449D01*
X152166725Y-124392893D01*
X152201913Y-124336890D01*
X152240553Y-124269965D01*
X152251847Y-124257421D01*
X152262035Y-124241208D01*
X152306326Y-124196916D01*
X152352417Y-124145728D01*
X152371059Y-124132183D01*
X152388708Y-124114535D01*
X152437854Y-124083654D01*
X152487662Y-124047467D01*
X152514373Y-124035574D01*
X152540393Y-124019225D01*
X152590377Y-124001734D01*
X152640389Y-123979468D01*
X152675092Y-123972091D01*
X152709483Y-123960058D01*
X152756781Y-123954728D01*
X152803912Y-123944711D01*
X152845689Y-123944711D01*
X152887500Y-123940000D01*
X152929311Y-123944711D01*
G37*
G36*
X210266891Y-123968804D02*
G01*
X210425413Y-124024273D01*
X210567617Y-124113626D01*
X210686374Y-124232383D01*
X210775727Y-124374587D01*
X210831196Y-124533109D01*
X210850000Y-124700000D01*
X210831196Y-124866891D01*
X210775727Y-125025413D01*
X210686374Y-125167617D01*
X210567617Y-125286374D01*
X210425413Y-125375727D01*
X210266891Y-125431196D01*
X210100000Y-125450000D01*
X209933109Y-125431196D01*
X209774587Y-125375727D01*
X209632383Y-125286374D01*
X209513626Y-125167617D01*
X209424273Y-125025413D01*
X209368804Y-124866891D01*
X209350000Y-124700000D01*
X209368804Y-124533109D01*
X209424273Y-124374587D01*
X209513626Y-124232383D01*
X209632383Y-124113626D01*
X209774587Y-124024273D01*
X209933109Y-123968804D01*
X210100000Y-123950000D01*
X210266891Y-123968804D01*
G37*
G36*
X215962664Y-122341602D02*
G01*
X216125000Y-122413878D01*
X216268761Y-122518327D01*
X216387664Y-122650383D01*
X216476514Y-122804274D01*
X216531425Y-122973275D01*
X216550000Y-123150000D01*
X216531425Y-123326725D01*
X216476514Y-123495726D01*
X216387664Y-123649617D01*
X216268761Y-123781673D01*
X216125000Y-123886122D01*
X215962664Y-123958398D01*
X215788849Y-123995344D01*
X215611151Y-123995344D01*
X215437336Y-123958398D01*
X215275000Y-123886122D01*
X215131239Y-123781673D01*
X215012336Y-123649617D01*
X214923486Y-123495726D01*
X214868575Y-123326725D01*
X214850000Y-123150000D01*
X214868575Y-122973275D01*
X214923486Y-122804274D01*
X215012336Y-122650383D01*
X215131239Y-122518327D01*
X215275000Y-122413878D01*
X215437336Y-122341602D01*
X215611151Y-122304656D01*
X215788849Y-122304656D01*
X215962664Y-122341602D01*
G37*
G36*
X218502664Y-122341602D02*
G01*
X218665000Y-122413878D01*
X218808761Y-122518327D01*
X218927664Y-122650383D01*
X219016514Y-122804274D01*
X219071425Y-122973275D01*
X219090000Y-123150000D01*
X219071425Y-123326725D01*
X219016514Y-123495726D01*
X218927664Y-123649617D01*
X218808761Y-123781673D01*
X218665000Y-123886122D01*
X218502664Y-123958398D01*
X218328849Y-123995344D01*
X218151151Y-123995344D01*
X217977336Y-123958398D01*
X217815000Y-123886122D01*
X217671239Y-123781673D01*
X217552336Y-123649617D01*
X217463486Y-123495726D01*
X217408575Y-123326725D01*
X217390000Y-123150000D01*
X217408575Y-122973275D01*
X217463486Y-122804274D01*
X217552336Y-122650383D01*
X217671239Y-122518327D01*
X217815000Y-122413878D01*
X217977336Y-122341602D01*
X218151151Y-122304656D01*
X218328849Y-122304656D01*
X218502664Y-122341602D01*
G37*
G36*
X210266891Y-121268804D02*
G01*
X210425413Y-121324273D01*
X210567617Y-121413626D01*
X210686374Y-121532383D01*
X210775727Y-121674587D01*
X210831196Y-121833109D01*
X210850000Y-122000000D01*
X210831196Y-122166891D01*
X210775727Y-122325413D01*
X210686374Y-122467617D01*
X210567617Y-122586374D01*
X210425413Y-122675727D01*
X210266891Y-122731196D01*
X210100000Y-122750000D01*
X209933109Y-122731196D01*
X209774587Y-122675727D01*
X209632383Y-122586374D01*
X209513626Y-122467617D01*
X209424273Y-122325413D01*
X209368804Y-122166891D01*
X209350000Y-122000000D01*
X209368804Y-121833109D01*
X209424273Y-121674587D01*
X209513626Y-121532383D01*
X209632383Y-121413626D01*
X209774587Y-121324273D01*
X209933109Y-121268804D01*
X210100000Y-121250000D01*
X210266891Y-121268804D01*
G37*
G36*
X148094641Y-117994802D02*
G01*
X148163976Y-117994802D01*
X148239193Y-118005140D01*
X148312130Y-118010357D01*
X148372169Y-118023417D01*
X148434383Y-118031969D01*
X148513919Y-118054253D01*
X148590965Y-118071014D01*
X148642976Y-118090413D01*
X148697208Y-118105608D01*
X148779196Y-118141220D01*
X148858330Y-118170736D01*
X148901824Y-118194485D01*
X148947568Y-118214355D01*
X149029865Y-118264401D01*
X149108782Y-118307493D01*
X149143653Y-118333597D01*
X149180777Y-118356173D01*
X149261050Y-118421480D01*
X149337221Y-118478501D01*
X149363762Y-118505042D01*
X149392512Y-118528432D01*
X149468282Y-118609562D01*
X149538999Y-118680279D01*
X149557869Y-118705486D01*
X149578815Y-118727914D01*
X149647507Y-118825228D01*
X149710007Y-118908718D01*
X149722189Y-118931029D01*
X149736219Y-118950904D01*
X149795253Y-119064836D01*
X149846764Y-119159170D01*
X149853521Y-119177287D01*
X149861791Y-119193247D01*
X149908625Y-119325028D01*
X149946486Y-119426535D01*
X149949302Y-119439480D01*
X149953200Y-119450448D01*
X149985480Y-119605787D01*
X150007143Y-119705370D01*
X150007651Y-119712482D01*
X150008733Y-119717686D01*
X150024269Y-119944835D01*
X150027500Y-119990000D01*
X150024269Y-120035167D01*
X150008733Y-120262313D01*
X150007651Y-120267515D01*
X150007143Y-120274630D01*
X149985475Y-120374233D01*
X149953200Y-120529551D01*
X149949302Y-120540517D01*
X149946486Y-120553465D01*
X149908618Y-120654991D01*
X149861791Y-120786752D01*
X149853522Y-120802708D01*
X149846764Y-120820830D01*
X149795243Y-120915182D01*
X149736219Y-121029095D01*
X149722192Y-121048966D01*
X149710007Y-121071282D01*
X149647494Y-121154788D01*
X149578815Y-121252085D01*
X149557872Y-121274508D01*
X149538999Y-121299721D01*
X149468268Y-121370451D01*
X149392512Y-121451567D01*
X149363768Y-121474951D01*
X149337221Y-121501499D01*
X149261034Y-121558531D01*
X149180777Y-121623826D01*
X149143660Y-121646396D01*
X149108782Y-121672507D01*
X149029849Y-121715607D01*
X148947568Y-121765644D01*
X148901833Y-121785509D01*
X148858330Y-121809264D01*
X148779180Y-121838785D01*
X148697208Y-121874391D01*
X148642987Y-121889582D01*
X148590965Y-121908986D01*
X148513903Y-121925749D01*
X148434383Y-121948030D01*
X148372179Y-121956580D01*
X148312130Y-121969643D01*
X148239189Y-121974859D01*
X148163976Y-121985198D01*
X148094641Y-121985198D01*
X148027500Y-121990000D01*
X147960359Y-121985198D01*
X147891024Y-121985198D01*
X147815810Y-121974859D01*
X147742870Y-121969643D01*
X147682821Y-121956580D01*
X147620616Y-121948030D01*
X147541092Y-121925748D01*
X147464035Y-121908986D01*
X147412015Y-121889583D01*
X147357791Y-121874391D01*
X147275812Y-121838782D01*
X147196670Y-121809264D01*
X147153170Y-121785511D01*
X147107431Y-121765644D01*
X147025140Y-121715602D01*
X146946218Y-121672507D01*
X146911343Y-121646400D01*
X146874222Y-121623826D01*
X146793952Y-121558522D01*
X146717779Y-121501499D01*
X146691236Y-121474956D01*
X146662487Y-121451567D01*
X146586716Y-121370436D01*
X146516001Y-121299721D01*
X146497131Y-121274513D01*
X146476184Y-121252085D01*
X146407487Y-121154764D01*
X146344993Y-121071282D01*
X146332811Y-121048972D01*
X146318780Y-121029095D01*
X146259736Y-120915146D01*
X146208236Y-120820830D01*
X146201479Y-120802715D01*
X146193208Y-120786752D01*
X146146360Y-120654935D01*
X146108514Y-120553465D01*
X146105698Y-120540524D01*
X146101799Y-120529551D01*
X146069502Y-120374131D01*
X146047857Y-120274630D01*
X146047348Y-120267523D01*
X146046266Y-120262313D01*
X146030707Y-120034847D01*
X146027500Y-119990000D01*
X146030707Y-119945156D01*
X146046266Y-119717686D01*
X146047348Y-119712475D01*
X146047857Y-119705370D01*
X146069497Y-119605890D01*
X146101799Y-119450448D01*
X146105699Y-119439473D01*
X146108514Y-119426535D01*
X146146352Y-119325085D01*
X146193208Y-119193247D01*
X146201481Y-119177280D01*
X146208236Y-119159170D01*
X146259726Y-119064871D01*
X146318780Y-118950904D01*
X146332813Y-118931023D01*
X146344993Y-118908718D01*
X146407475Y-118825251D01*
X146476184Y-118727914D01*
X146497134Y-118705480D01*
X146516001Y-118680279D01*
X146586702Y-118609577D01*
X146662487Y-118528432D01*
X146691241Y-118505038D01*
X146717779Y-118478501D01*
X146793937Y-118421489D01*
X146874222Y-118356173D01*
X146911350Y-118333594D01*
X146946218Y-118307493D01*
X147025124Y-118264406D01*
X147107431Y-118214355D01*
X147153179Y-118194483D01*
X147196670Y-118170736D01*
X147275796Y-118141223D01*
X147357791Y-118105608D01*
X147412026Y-118090412D01*
X147464035Y-118071014D01*
X147541076Y-118054254D01*
X147620616Y-118031969D01*
X147682831Y-118023417D01*
X147742870Y-118010357D01*
X147815806Y-118005140D01*
X147891024Y-117994802D01*
X147960359Y-117994802D01*
X148027500Y-117990000D01*
X148094641Y-117994802D01*
G37*
G36*
X215962664Y-119801602D02*
G01*
X216125000Y-119873878D01*
X216268761Y-119978327D01*
X216387664Y-120110383D01*
X216476514Y-120264274D01*
X216531425Y-120433275D01*
X216550000Y-120610000D01*
X216531425Y-120786725D01*
X216476514Y-120955726D01*
X216387664Y-121109617D01*
X216268761Y-121241673D01*
X216125000Y-121346122D01*
X215962664Y-121418398D01*
X215788849Y-121455344D01*
X215611151Y-121455344D01*
X215437336Y-121418398D01*
X215275000Y-121346122D01*
X215131239Y-121241673D01*
X215012336Y-121109617D01*
X214923486Y-120955726D01*
X214868575Y-120786725D01*
X214850000Y-120610000D01*
X214868575Y-120433275D01*
X214923486Y-120264274D01*
X215012336Y-120110383D01*
X215131239Y-119978327D01*
X215275000Y-119873878D01*
X215437336Y-119801602D01*
X215611151Y-119764656D01*
X215788849Y-119764656D01*
X215962664Y-119801602D01*
G37*
G36*
X218502664Y-119801602D02*
G01*
X218665000Y-119873878D01*
X218808761Y-119978327D01*
X218927664Y-120110383D01*
X219016514Y-120264274D01*
X219071425Y-120433275D01*
X219090000Y-120610000D01*
X219071425Y-120786725D01*
X219016514Y-120955726D01*
X218927664Y-121109617D01*
X218808761Y-121241673D01*
X218665000Y-121346122D01*
X218502664Y-121418398D01*
X218328849Y-121455344D01*
X218151151Y-121455344D01*
X217977336Y-121418398D01*
X217815000Y-121346122D01*
X217671239Y-121241673D01*
X217552336Y-121109617D01*
X217463486Y-120955726D01*
X217408575Y-120786725D01*
X217390000Y-120610000D01*
X217408575Y-120433275D01*
X217463486Y-120264274D01*
X217552336Y-120110383D01*
X217671239Y-119978327D01*
X217815000Y-119873878D01*
X217977336Y-119801602D01*
X218151151Y-119764656D01*
X218328849Y-119764656D01*
X218502664Y-119801602D01*
G37*
G36*
X210366891Y-118568804D02*
G01*
X210525413Y-118624273D01*
X210667617Y-118713626D01*
X210786374Y-118832383D01*
X210875727Y-118974587D01*
X210931196Y-119133109D01*
X210950000Y-119300000D01*
X210931196Y-119466891D01*
X210875727Y-119625413D01*
X210786374Y-119767617D01*
X210667617Y-119886374D01*
X210525413Y-119975727D01*
X210366891Y-120031196D01*
X210200000Y-120050000D01*
X210033109Y-120031196D01*
X209874587Y-119975727D01*
X209732383Y-119886374D01*
X209613626Y-119767617D01*
X209524273Y-119625413D01*
X209468804Y-119466891D01*
X209450000Y-119300000D01*
X209468804Y-119133109D01*
X209524273Y-118974587D01*
X209613626Y-118832383D01*
X209732383Y-118713626D01*
X209874587Y-118624273D01*
X210033109Y-118568804D01*
X210200000Y-118550000D01*
X210366891Y-118568804D01*
G37*
G36*
X215962664Y-117261602D02*
G01*
X216125000Y-117333878D01*
X216268761Y-117438327D01*
X216387664Y-117570383D01*
X216476514Y-117724274D01*
X216531425Y-117893275D01*
X216550000Y-118070000D01*
X216531425Y-118246725D01*
X216476514Y-118415726D01*
X216387664Y-118569617D01*
X216268761Y-118701673D01*
X216125000Y-118806122D01*
X215962664Y-118878398D01*
X215788849Y-118915344D01*
X215611151Y-118915344D01*
X215437336Y-118878398D01*
X215275000Y-118806122D01*
X215131239Y-118701673D01*
X215012336Y-118569617D01*
X214923486Y-118415726D01*
X214868575Y-118246725D01*
X214850000Y-118070000D01*
X214868575Y-117893275D01*
X214923486Y-117724274D01*
X215012336Y-117570383D01*
X215131239Y-117438327D01*
X215275000Y-117333878D01*
X215437336Y-117261602D01*
X215611151Y-117224656D01*
X215788849Y-117224656D01*
X215962664Y-117261602D01*
G37*
G36*
X218502664Y-117261602D02*
G01*
X218665000Y-117333878D01*
X218808761Y-117438327D01*
X218927664Y-117570383D01*
X219016514Y-117724274D01*
X219071425Y-117893275D01*
X219090000Y-118070000D01*
X219071425Y-118246725D01*
X219016514Y-118415726D01*
X218927664Y-118569617D01*
X218808761Y-118701673D01*
X218665000Y-118806122D01*
X218502664Y-118878398D01*
X218328849Y-118915344D01*
X218151151Y-118915344D01*
X217977336Y-118878398D01*
X217815000Y-118806122D01*
X217671239Y-118701673D01*
X217552336Y-118569617D01*
X217463486Y-118415726D01*
X217408575Y-118246725D01*
X217390000Y-118070000D01*
X217408575Y-117893275D01*
X217463486Y-117724274D01*
X217552336Y-117570383D01*
X217671239Y-117438327D01*
X217815000Y-117333878D01*
X217977336Y-117261602D01*
X218151151Y-117224656D01*
X218328849Y-117224656D01*
X218502664Y-117261602D01*
G37*
G36*
X210366891Y-115868804D02*
G01*
X210525413Y-115924273D01*
X210667617Y-116013626D01*
X210786374Y-116132383D01*
X210875727Y-116274587D01*
X210931196Y-116433109D01*
X210950000Y-116600000D01*
X210931196Y-116766891D01*
X210875727Y-116925413D01*
X210786374Y-117067617D01*
X210667617Y-117186374D01*
X210525413Y-117275727D01*
X210366891Y-117331196D01*
X210200000Y-117350000D01*
X210033109Y-117331196D01*
X209874587Y-117275727D01*
X209732383Y-117186374D01*
X209613626Y-117067617D01*
X209524273Y-116925413D01*
X209468804Y-116766891D01*
X209450000Y-116600000D01*
X209468804Y-116433109D01*
X209524273Y-116274587D01*
X209613626Y-116132383D01*
X209732383Y-116013626D01*
X209874587Y-115924273D01*
X210033109Y-115868804D01*
X210200000Y-115850000D01*
X210366891Y-115868804D01*
G37*
G36*
X215962664Y-114721602D02*
G01*
X216125000Y-114793878D01*
X216268761Y-114898327D01*
X216387664Y-115030383D01*
X216476514Y-115184274D01*
X216531425Y-115353275D01*
X216550000Y-115530000D01*
X216531425Y-115706725D01*
X216476514Y-115875726D01*
X216387664Y-116029617D01*
X216268761Y-116161673D01*
X216125000Y-116266122D01*
X215962664Y-116338398D01*
X215788849Y-116375344D01*
X215611151Y-116375344D01*
X215437336Y-116338398D01*
X215275000Y-116266122D01*
X215131239Y-116161673D01*
X215012336Y-116029617D01*
X214923486Y-115875726D01*
X214868575Y-115706725D01*
X214850000Y-115530000D01*
X214868575Y-115353275D01*
X214923486Y-115184274D01*
X215012336Y-115030383D01*
X215131239Y-114898327D01*
X215275000Y-114793878D01*
X215437336Y-114721602D01*
X215611151Y-114684656D01*
X215788849Y-114684656D01*
X215962664Y-114721602D01*
G37*
G36*
X218502664Y-114721602D02*
G01*
X218665000Y-114793878D01*
X218808761Y-114898327D01*
X218927664Y-115030383D01*
X219016514Y-115184274D01*
X219071425Y-115353275D01*
X219090000Y-115530000D01*
X219071425Y-115706725D01*
X219016514Y-115875726D01*
X218927664Y-116029617D01*
X218808761Y-116161673D01*
X218665000Y-116266122D01*
X218502664Y-116338398D01*
X218328849Y-116375344D01*
X218151151Y-116375344D01*
X217977336Y-116338398D01*
X217815000Y-116266122D01*
X217671239Y-116161673D01*
X217552336Y-116029617D01*
X217463486Y-115875726D01*
X217408575Y-115706725D01*
X217390000Y-115530000D01*
X217408575Y-115353275D01*
X217463486Y-115184274D01*
X217552336Y-115030383D01*
X217671239Y-114898327D01*
X217815000Y-114793878D01*
X217977336Y-114721602D01*
X218151151Y-114684656D01*
X218328849Y-114684656D01*
X218502664Y-114721602D01*
G37*
G36*
X149293125Y-111148010D02*
G01*
X149301782Y-111150162D01*
X149311059Y-111150893D01*
X149392944Y-111172833D01*
X149476741Y-111193673D01*
X149483818Y-111197183D01*
X149488457Y-111198426D01*
X149566395Y-111238137D01*
X149646247Y-111277741D01*
X149649929Y-111280700D01*
X149651376Y-111281438D01*
X149722826Y-111339297D01*
X149793718Y-111396282D01*
X149850727Y-111467205D01*
X149908561Y-111538623D01*
X149909297Y-111540069D01*
X149912259Y-111543753D01*
X149951880Y-111623641D01*
X149991573Y-111701542D01*
X149992815Y-111706178D01*
X149996327Y-111713259D01*
X150017175Y-111797093D01*
X150039106Y-111878940D01*
X150039835Y-111888212D01*
X150041990Y-111896875D01*
X150050000Y-112015000D01*
X150050000Y-113765000D01*
X150041990Y-113883125D01*
X150039835Y-113891788D01*
X150039106Y-113901059D01*
X150017178Y-113982892D01*
X149996327Y-114066741D01*
X149992814Y-114073822D01*
X149991573Y-114078457D01*
X149951898Y-114156321D01*
X149912259Y-114236247D01*
X149909296Y-114239932D01*
X149908561Y-114241376D01*
X149850837Y-114312658D01*
X149793718Y-114383718D01*
X149722658Y-114440837D01*
X149651376Y-114498561D01*
X149649932Y-114499296D01*
X149646247Y-114502259D01*
X149566321Y-114541898D01*
X149488457Y-114581573D01*
X149483822Y-114582814D01*
X149476741Y-114586327D01*
X149392892Y-114607178D01*
X149311059Y-114629106D01*
X149301788Y-114629835D01*
X149293125Y-114631990D01*
X149175000Y-114640000D01*
X147425000Y-114640000D01*
X147306875Y-114631990D01*
X147298212Y-114629835D01*
X147288940Y-114629106D01*
X147207093Y-114607175D01*
X147123259Y-114586327D01*
X147116178Y-114582815D01*
X147111542Y-114581573D01*
X147033641Y-114541880D01*
X146953753Y-114502259D01*
X146950069Y-114499297D01*
X146948623Y-114498561D01*
X146877205Y-114440727D01*
X146806282Y-114383718D01*
X146749297Y-114312826D01*
X146691438Y-114241376D01*
X146690700Y-114239929D01*
X146687741Y-114236247D01*
X146648137Y-114156395D01*
X146608426Y-114078457D01*
X146607183Y-114073818D01*
X146603673Y-114066741D01*
X146582833Y-113982944D01*
X146560893Y-113901059D01*
X146560162Y-113891782D01*
X146558010Y-113883125D01*
X146550000Y-113765000D01*
X146550000Y-112015000D01*
X146558010Y-111896875D01*
X146560162Y-111888218D01*
X146560893Y-111878940D01*
X146582837Y-111797041D01*
X146603673Y-111713259D01*
X146607182Y-111706182D01*
X146608426Y-111701542D01*
X146648156Y-111623567D01*
X146687741Y-111543753D01*
X146690699Y-111540072D01*
X146691438Y-111538623D01*
X146749406Y-111467037D01*
X146806282Y-111396282D01*
X146877037Y-111339406D01*
X146948623Y-111281438D01*
X146950072Y-111280699D01*
X146953753Y-111277741D01*
X147033567Y-111238156D01*
X147111542Y-111198426D01*
X147116182Y-111197182D01*
X147123259Y-111193673D01*
X147207041Y-111172837D01*
X147288940Y-111150893D01*
X147298218Y-111150162D01*
X147306875Y-111148010D01*
X147425000Y-111140000D01*
X149175000Y-111140000D01*
X149293125Y-111148010D01*
G37*
G36*
X215962664Y-112181602D02*
G01*
X216125000Y-112253878D01*
X216268761Y-112358327D01*
X216387664Y-112490383D01*
X216476514Y-112644274D01*
X216531425Y-112813275D01*
X216550000Y-112990000D01*
X216531425Y-113166725D01*
X216476514Y-113335726D01*
X216387664Y-113489617D01*
X216268761Y-113621673D01*
X216125000Y-113726122D01*
X215962664Y-113798398D01*
X215788849Y-113835344D01*
X215611151Y-113835344D01*
X215437336Y-113798398D01*
X215275000Y-113726122D01*
X215131239Y-113621673D01*
X215012336Y-113489617D01*
X214923486Y-113335726D01*
X214868575Y-113166725D01*
X214850000Y-112990000D01*
X214868575Y-112813275D01*
X214923486Y-112644274D01*
X215012336Y-112490383D01*
X215131239Y-112358327D01*
X215275000Y-112253878D01*
X215437336Y-112181602D01*
X215611151Y-112144656D01*
X215788849Y-112144656D01*
X215962664Y-112181602D01*
G37*
G36*
X218502664Y-112181602D02*
G01*
X218665000Y-112253878D01*
X218808761Y-112358327D01*
X218927664Y-112490383D01*
X219016514Y-112644274D01*
X219071425Y-112813275D01*
X219090000Y-112990000D01*
X219071425Y-113166725D01*
X219016514Y-113335726D01*
X218927664Y-113489617D01*
X218808761Y-113621673D01*
X218665000Y-113726122D01*
X218502664Y-113798398D01*
X218328849Y-113835344D01*
X218151151Y-113835344D01*
X217977336Y-113798398D01*
X217815000Y-113726122D01*
X217671239Y-113621673D01*
X217552336Y-113489617D01*
X217463486Y-113335726D01*
X217408575Y-113166725D01*
X217390000Y-112990000D01*
X217408575Y-112813275D01*
X217463486Y-112644274D01*
X217552336Y-112490383D01*
X217671239Y-112358327D01*
X217815000Y-112253878D01*
X217977336Y-112181602D01*
X218151151Y-112144656D01*
X218328849Y-112144656D01*
X218502664Y-112181602D01*
G37*
G36*
X227262664Y-110731602D02*
G01*
X227425000Y-110803878D01*
X227568761Y-110908327D01*
X227687664Y-111040383D01*
X227776514Y-111194274D01*
X227831425Y-111363275D01*
X227850000Y-111540000D01*
X227831425Y-111716725D01*
X227776514Y-111885726D01*
X227687664Y-112039617D01*
X227568761Y-112171673D01*
X227425000Y-112276122D01*
X227262664Y-112348398D01*
X227088849Y-112385344D01*
X226911151Y-112385344D01*
X226737336Y-112348398D01*
X226575000Y-112276122D01*
X226431239Y-112171673D01*
X226312336Y-112039617D01*
X226223486Y-111885726D01*
X226168575Y-111716725D01*
X226150000Y-111540000D01*
X226168575Y-111363275D01*
X226223486Y-111194274D01*
X226312336Y-111040383D01*
X226431239Y-110908327D01*
X226575000Y-110803878D01*
X226737336Y-110731602D01*
X226911151Y-110694656D01*
X227088849Y-110694656D01*
X227262664Y-110731602D01*
G37*
G36*
X215962664Y-109641602D02*
G01*
X216125000Y-109713878D01*
X216268761Y-109818327D01*
X216387664Y-109950383D01*
X216476514Y-110104274D01*
X216531425Y-110273275D01*
X216550000Y-110450000D01*
X216531425Y-110626725D01*
X216476514Y-110795726D01*
X216387664Y-110949617D01*
X216268761Y-111081673D01*
X216125000Y-111186122D01*
X215962664Y-111258398D01*
X215788849Y-111295344D01*
X215611151Y-111295344D01*
X215437336Y-111258398D01*
X215275000Y-111186122D01*
X215131239Y-111081673D01*
X215012336Y-110949617D01*
X214923486Y-110795726D01*
X214868575Y-110626725D01*
X214850000Y-110450000D01*
X214868575Y-110273275D01*
X214923486Y-110104274D01*
X215012336Y-109950383D01*
X215131239Y-109818327D01*
X215275000Y-109713878D01*
X215437336Y-109641602D01*
X215611151Y-109604656D01*
X215788849Y-109604656D01*
X215962664Y-109641602D01*
G37*
G36*
X218502664Y-109641602D02*
G01*
X218665000Y-109713878D01*
X218808761Y-109818327D01*
X218927664Y-109950383D01*
X219016514Y-110104274D01*
X219071425Y-110273275D01*
X219090000Y-110450000D01*
X219071425Y-110626725D01*
X219016514Y-110795726D01*
X218927664Y-110949617D01*
X218808761Y-111081673D01*
X218665000Y-111186122D01*
X218502664Y-111258398D01*
X218328849Y-111295344D01*
X218151151Y-111295344D01*
X217977336Y-111258398D01*
X217815000Y-111186122D01*
X217671239Y-111081673D01*
X217552336Y-110949617D01*
X217463486Y-110795726D01*
X217408575Y-110626725D01*
X217390000Y-110450000D01*
X217408575Y-110273275D01*
X217463486Y-110104274D01*
X217552336Y-109950383D01*
X217671239Y-109818327D01*
X217815000Y-109713878D01*
X217977336Y-109641602D01*
X218151151Y-109604656D01*
X218328849Y-109604656D01*
X218502664Y-109641602D01*
G37*
G36*
X146201663Y-106455495D02*
G01*
X146210683Y-106458484D01*
X146216807Y-106459174D01*
X146288961Y-106484422D01*
X146366964Y-106510269D01*
X146372388Y-106513614D01*
X146375247Y-106514615D01*
X146441422Y-106556195D01*
X146515177Y-106601688D01*
X146638312Y-106724823D01*
X146683823Y-106798609D01*
X146725384Y-106864752D01*
X146726383Y-106867609D01*
X146729731Y-106873036D01*
X146755592Y-106951083D01*
X146780825Y-107023193D01*
X146781514Y-107029311D01*
X146784505Y-107038337D01*
X146800000Y-107190000D01*
X146800000Y-109190000D01*
X146784505Y-109341663D01*
X146781514Y-109350688D01*
X146780825Y-109356807D01*
X146755595Y-109428907D01*
X146729731Y-109506964D01*
X146726383Y-109512391D01*
X146725384Y-109515247D01*
X146683857Y-109581336D01*
X146638312Y-109655177D01*
X146515177Y-109778312D01*
X146441336Y-109823857D01*
X146375247Y-109865384D01*
X146372391Y-109866383D01*
X146366964Y-109869731D01*
X146288897Y-109895599D01*
X146216806Y-109920825D01*
X146210688Y-109921514D01*
X146201663Y-109924505D01*
X146050000Y-109940000D01*
X144550000Y-109940000D01*
X144398337Y-109924505D01*
X144389312Y-109921514D01*
X144383192Y-109920825D01*
X144311073Y-109895589D01*
X144233036Y-109869731D01*
X144227609Y-109866383D01*
X144224752Y-109865384D01*
X144158609Y-109823823D01*
X144084823Y-109778312D01*
X143961688Y-109655177D01*
X143916195Y-109581422D01*
X143874615Y-109515247D01*
X143873614Y-109512388D01*
X143870269Y-109506964D01*
X143844418Y-109428951D01*
X143819174Y-109356806D01*
X143818484Y-109350684D01*
X143815495Y-109341663D01*
X143800000Y-109190000D01*
X143800000Y-107190000D01*
X143815495Y-107038337D01*
X143818483Y-107029316D01*
X143819174Y-107023192D01*
X143844428Y-106951019D01*
X143870269Y-106873036D01*
X143873613Y-106867613D01*
X143874615Y-106864752D01*
X143916229Y-106798522D01*
X143961688Y-106724823D01*
X144084823Y-106601688D01*
X144158522Y-106556229D01*
X144224752Y-106514615D01*
X144227613Y-106513613D01*
X144233036Y-106510269D01*
X144311029Y-106484425D01*
X144383193Y-106459174D01*
X144389316Y-106458484D01*
X144398337Y-106455495D01*
X144550000Y-106440000D01*
X146050000Y-106440000D01*
X146201663Y-106455495D01*
G37*
G36*
X153050000Y-109940000D02*
G01*
X149550000Y-109940000D01*
X149550000Y-106440000D01*
X153050000Y-106440000D01*
X153050000Y-109940000D01*
G37*
G36*
X227850000Y-109850000D02*
G01*
X226150000Y-109850000D01*
X226150000Y-108150000D01*
X227850000Y-108150000D01*
X227850000Y-109850000D01*
G37*
G36*
X215962664Y-107101602D02*
G01*
X216125000Y-107173878D01*
X216268761Y-107278327D01*
X216387664Y-107410383D01*
X216476514Y-107564274D01*
X216531425Y-107733275D01*
X216550000Y-107910000D01*
X216531425Y-108086725D01*
X216476514Y-108255726D01*
X216387664Y-108409617D01*
X216268761Y-108541673D01*
X216125000Y-108646122D01*
X215962664Y-108718398D01*
X215788849Y-108755344D01*
X215611151Y-108755344D01*
X215437336Y-108718398D01*
X215275000Y-108646122D01*
X215131239Y-108541673D01*
X215012336Y-108409617D01*
X214923486Y-108255726D01*
X214868575Y-108086725D01*
X214850000Y-107910000D01*
X214868575Y-107733275D01*
X214923486Y-107564274D01*
X215012336Y-107410383D01*
X215131239Y-107278327D01*
X215275000Y-107173878D01*
X215437336Y-107101602D01*
X215611151Y-107064656D01*
X215788849Y-107064656D01*
X215962664Y-107101602D01*
G37*
G36*
X218502664Y-107101602D02*
G01*
X218665000Y-107173878D01*
X218808761Y-107278327D01*
X218927664Y-107410383D01*
X219016514Y-107564274D01*
X219071425Y-107733275D01*
X219090000Y-107910000D01*
X219071425Y-108086725D01*
X219016514Y-108255726D01*
X218927664Y-108409617D01*
X218808761Y-108541673D01*
X218665000Y-108646122D01*
X218502664Y-108718398D01*
X218328849Y-108755344D01*
X218151151Y-108755344D01*
X217977336Y-108718398D01*
X217815000Y-108646122D01*
X217671239Y-108541673D01*
X217552336Y-108409617D01*
X217463486Y-108255726D01*
X217408575Y-108086725D01*
X217390000Y-107910000D01*
X217408575Y-107733275D01*
X217463486Y-107564274D01*
X217552336Y-107410383D01*
X217671239Y-107278327D01*
X217815000Y-107173878D01*
X217977336Y-107101602D01*
X218151151Y-107064656D01*
X218328849Y-107064656D01*
X218502664Y-107101602D01*
G37*
G36*
X215962664Y-104561602D02*
G01*
X216125000Y-104633878D01*
X216268761Y-104738327D01*
X216387664Y-104870383D01*
X216476514Y-105024274D01*
X216531425Y-105193275D01*
X216550000Y-105370000D01*
X216531425Y-105546725D01*
X216476514Y-105715726D01*
X216387664Y-105869617D01*
X216268761Y-106001673D01*
X216125000Y-106106122D01*
X215962664Y-106178398D01*
X215788849Y-106215344D01*
X215611151Y-106215344D01*
X215437336Y-106178398D01*
X215275000Y-106106122D01*
X215131239Y-106001673D01*
X215012336Y-105869617D01*
X214923486Y-105715726D01*
X214868575Y-105546725D01*
X214850000Y-105370000D01*
X214868575Y-105193275D01*
X214923486Y-105024274D01*
X215012336Y-104870383D01*
X215131239Y-104738327D01*
X215275000Y-104633878D01*
X215437336Y-104561602D01*
X215611151Y-104524656D01*
X215788849Y-104524656D01*
X215962664Y-104561602D01*
G37*
G36*
X218502664Y-104561602D02*
G01*
X218665000Y-104633878D01*
X218808761Y-104738327D01*
X218927664Y-104870383D01*
X219016514Y-105024274D01*
X219071425Y-105193275D01*
X219090000Y-105370000D01*
X219071425Y-105546725D01*
X219016514Y-105715726D01*
X218927664Y-105869617D01*
X218808761Y-106001673D01*
X218665000Y-106106122D01*
X218502664Y-106178398D01*
X218328849Y-106215344D01*
X218151151Y-106215344D01*
X217977336Y-106178398D01*
X217815000Y-106106122D01*
X217671239Y-106001673D01*
X217552336Y-105869617D01*
X217463486Y-105715726D01*
X217408575Y-105546725D01*
X217390000Y-105370000D01*
X217408575Y-105193275D01*
X217463486Y-105024274D01*
X217552336Y-104870383D01*
X217671239Y-104738327D01*
X217815000Y-104633878D01*
X217977336Y-104561602D01*
X218151151Y-104524656D01*
X218328849Y-104524656D01*
X218502664Y-104561602D01*
G37*
G36*
X215962664Y-102021602D02*
G01*
X216125000Y-102093878D01*
X216268761Y-102198327D01*
X216387664Y-102330383D01*
X216476514Y-102484274D01*
X216531425Y-102653275D01*
X216550000Y-102830000D01*
X216531425Y-103006725D01*
X216476514Y-103175726D01*
X216387664Y-103329617D01*
X216268761Y-103461673D01*
X216125000Y-103566122D01*
X215962664Y-103638398D01*
X215788849Y-103675344D01*
X215611151Y-103675344D01*
X215437336Y-103638398D01*
X215275000Y-103566122D01*
X215131239Y-103461673D01*
X215012336Y-103329617D01*
X214923486Y-103175726D01*
X214868575Y-103006725D01*
X214850000Y-102830000D01*
X214868575Y-102653275D01*
X214923486Y-102484274D01*
X215012336Y-102330383D01*
X215131239Y-102198327D01*
X215275000Y-102093878D01*
X215437336Y-102021602D01*
X215611151Y-101984656D01*
X215788849Y-101984656D01*
X215962664Y-102021602D01*
G37*
G36*
X218502664Y-102021602D02*
G01*
X218665000Y-102093878D01*
X218808761Y-102198327D01*
X218927664Y-102330383D01*
X219016514Y-102484274D01*
X219071425Y-102653275D01*
X219090000Y-102830000D01*
X219071425Y-103006725D01*
X219016514Y-103175726D01*
X218927664Y-103329617D01*
X218808761Y-103461673D01*
X218665000Y-103566122D01*
X218502664Y-103638398D01*
X218328849Y-103675344D01*
X218151151Y-103675344D01*
X217977336Y-103638398D01*
X217815000Y-103566122D01*
X217671239Y-103461673D01*
X217552336Y-103329617D01*
X217463486Y-103175726D01*
X217408575Y-103006725D01*
X217390000Y-102830000D01*
X217408575Y-102653275D01*
X217463486Y-102484274D01*
X217552336Y-102330383D01*
X217671239Y-102198327D01*
X217815000Y-102093878D01*
X217977336Y-102021602D01*
X218151151Y-101984656D01*
X218328849Y-101984656D01*
X218502664Y-102021602D01*
G37*
G36*
X215962664Y-99481602D02*
G01*
X216125000Y-99553878D01*
X216268761Y-99658327D01*
X216387664Y-99790383D01*
X216476514Y-99944274D01*
X216531425Y-100113275D01*
X216550000Y-100290000D01*
X216531425Y-100466725D01*
X216476514Y-100635726D01*
X216387664Y-100789617D01*
X216268761Y-100921673D01*
X216125000Y-101026122D01*
X215962664Y-101098398D01*
X215788849Y-101135344D01*
X215611151Y-101135344D01*
X215437336Y-101098398D01*
X215275000Y-101026122D01*
X215131239Y-100921673D01*
X215012336Y-100789617D01*
X214923486Y-100635726D01*
X214868575Y-100466725D01*
X214850000Y-100290000D01*
X214868575Y-100113275D01*
X214923486Y-99944274D01*
X215012336Y-99790383D01*
X215131239Y-99658327D01*
X215275000Y-99553878D01*
X215437336Y-99481602D01*
X215611151Y-99444656D01*
X215788849Y-99444656D01*
X215962664Y-99481602D01*
G37*
G36*
X218502664Y-99481602D02*
G01*
X218665000Y-99553878D01*
X218808761Y-99658327D01*
X218927664Y-99790383D01*
X219016514Y-99944274D01*
X219071425Y-100113275D01*
X219090000Y-100290000D01*
X219071425Y-100466725D01*
X219016514Y-100635726D01*
X218927664Y-100789617D01*
X218808761Y-100921673D01*
X218665000Y-101026122D01*
X218502664Y-101098398D01*
X218328849Y-101135344D01*
X218151151Y-101135344D01*
X217977336Y-101098398D01*
X217815000Y-101026122D01*
X217671239Y-100921673D01*
X217552336Y-100789617D01*
X217463486Y-100635726D01*
X217408575Y-100466725D01*
X217390000Y-100290000D01*
X217408575Y-100113275D01*
X217463486Y-99944274D01*
X217552336Y-99790383D01*
X217671239Y-99658327D01*
X217815000Y-99553878D01*
X217977336Y-99481602D01*
X218151151Y-99444656D01*
X218328849Y-99444656D01*
X218502664Y-99481602D01*
G37*
G36*
X215962664Y-96941602D02*
G01*
X216125000Y-97013878D01*
X216268761Y-97118327D01*
X216387664Y-97250383D01*
X216476514Y-97404274D01*
X216531425Y-97573275D01*
X216550000Y-97750000D01*
X216531425Y-97926725D01*
X216476514Y-98095726D01*
X216387664Y-98249617D01*
X216268761Y-98381673D01*
X216125000Y-98486122D01*
X215962664Y-98558398D01*
X215788849Y-98595344D01*
X215611151Y-98595344D01*
X215437336Y-98558398D01*
X215275000Y-98486122D01*
X215131239Y-98381673D01*
X215012336Y-98249617D01*
X214923486Y-98095726D01*
X214868575Y-97926725D01*
X214850000Y-97750000D01*
X214868575Y-97573275D01*
X214923486Y-97404274D01*
X215012336Y-97250383D01*
X215131239Y-97118327D01*
X215275000Y-97013878D01*
X215437336Y-96941602D01*
X215611151Y-96904656D01*
X215788849Y-96904656D01*
X215962664Y-96941602D01*
G37*
G36*
X218502664Y-96941602D02*
G01*
X218665000Y-97013878D01*
X218808761Y-97118327D01*
X218927664Y-97250383D01*
X219016514Y-97404274D01*
X219071425Y-97573275D01*
X219090000Y-97750000D01*
X219071425Y-97926725D01*
X219016514Y-98095726D01*
X218927664Y-98249617D01*
X218808761Y-98381673D01*
X218665000Y-98486122D01*
X218502664Y-98558398D01*
X218328849Y-98595344D01*
X218151151Y-98595344D01*
X217977336Y-98558398D01*
X217815000Y-98486122D01*
X217671239Y-98381673D01*
X217552336Y-98249617D01*
X217463486Y-98095726D01*
X217408575Y-97926725D01*
X217390000Y-97750000D01*
X217408575Y-97573275D01*
X217463486Y-97404274D01*
X217552336Y-97250383D01*
X217671239Y-97118327D01*
X217815000Y-97013878D01*
X217977336Y-96941602D01*
X218151151Y-96904656D01*
X218328849Y-96904656D01*
X218502664Y-96941602D01*
G37*
G36*
X142617714Y-95272295D02*
G01*
X142753548Y-95328559D01*
X142875795Y-95410242D01*
X142979758Y-95514205D01*
X143061441Y-95636452D01*
X143117705Y-95772286D01*
X143146389Y-95916487D01*
X143150000Y-95990000D01*
X143150000Y-96990000D01*
X143146389Y-97063513D01*
X143117705Y-97207714D01*
X143061441Y-97343548D01*
X142979758Y-97465795D01*
X142875795Y-97569758D01*
X142753548Y-97651441D01*
X142617714Y-97707705D01*
X142473513Y-97736389D01*
X142326487Y-97736389D01*
X142182286Y-97707705D01*
X142046452Y-97651441D01*
X141924205Y-97569758D01*
X141820242Y-97465795D01*
X141738559Y-97343548D01*
X141682295Y-97207714D01*
X141653611Y-97063513D01*
X141650000Y-96990000D01*
X141650000Y-95990000D01*
X141653611Y-95916487D01*
X141682295Y-95772286D01*
X141738559Y-95636452D01*
X141820242Y-95514205D01*
X141924205Y-95410242D01*
X142046452Y-95328559D01*
X142182286Y-95272295D01*
X142326487Y-95243611D01*
X142473513Y-95243611D01*
X142617714Y-95272295D01*
G37*
G36*
X154217714Y-95272295D02*
G01*
X154353548Y-95328559D01*
X154475795Y-95410242D01*
X154579758Y-95514205D01*
X154661441Y-95636452D01*
X154717705Y-95772286D01*
X154746389Y-95916487D01*
X154750000Y-95990000D01*
X154750000Y-96990000D01*
X154746389Y-97063513D01*
X154717705Y-97207714D01*
X154661441Y-97343548D01*
X154579758Y-97465795D01*
X154475795Y-97569758D01*
X154353548Y-97651441D01*
X154217714Y-97707705D01*
X154073513Y-97736389D01*
X153926487Y-97736389D01*
X153782286Y-97707705D01*
X153646452Y-97651441D01*
X153524205Y-97569758D01*
X153420242Y-97465795D01*
X153338559Y-97343548D01*
X153282295Y-97207714D01*
X153253611Y-97063513D01*
X153250000Y-96990000D01*
X153250000Y-95990000D01*
X153253611Y-95916487D01*
X153282295Y-95772286D01*
X153338559Y-95636452D01*
X153420242Y-95514205D01*
X153524205Y-95410242D01*
X153646452Y-95328559D01*
X153782286Y-95272295D01*
X153926487Y-95243611D01*
X154073513Y-95243611D01*
X154217714Y-95272295D01*
G37*
G36*
X145247113Y-95594930D02*
G01*
X145294076Y-95594930D01*
X145334622Y-95603548D01*
X145375526Y-95607577D01*
X145426916Y-95623166D01*
X145478115Y-95634049D01*
X145510879Y-95648636D01*
X145544304Y-95658776D01*
X145597420Y-95687166D01*
X145650000Y-95710577D01*
X145674445Y-95728337D01*
X145699849Y-95741916D01*
X145751669Y-95784444D01*
X145802218Y-95821170D01*
X145818631Y-95839398D01*
X145836190Y-95853809D01*
X145883379Y-95911308D01*
X145928115Y-95960993D01*
X145937512Y-95977269D01*
X145948083Y-95990150D01*
X145987183Y-96063302D01*
X146022191Y-96123937D01*
X146026218Y-96136331D01*
X146031223Y-96145695D01*
X146058821Y-96236672D01*
X146080333Y-96302879D01*
X146081090Y-96310082D01*
X146082422Y-96314473D01*
X146095377Y-96446021D01*
X146100000Y-96490000D01*
X146095377Y-96533982D01*
X146082422Y-96665526D01*
X146081090Y-96669916D01*
X146080333Y-96677121D01*
X146058816Y-96743341D01*
X146031223Y-96834304D01*
X146026219Y-96843665D01*
X146022191Y-96856063D01*
X145987176Y-96916709D01*
X145948083Y-96989849D01*
X145937514Y-97002726D01*
X145928115Y-97019007D01*
X145883369Y-97068701D01*
X145836190Y-97126190D01*
X145818634Y-97140597D01*
X145802218Y-97158830D01*
X145751659Y-97195563D01*
X145699849Y-97238083D01*
X145674450Y-97251658D01*
X145650000Y-97269423D01*
X145597408Y-97292838D01*
X145544304Y-97321223D01*
X145510886Y-97331360D01*
X145478115Y-97345951D01*
X145426905Y-97356836D01*
X145375526Y-97372422D01*
X145334631Y-97376449D01*
X145294076Y-97385070D01*
X145247103Y-97385070D01*
X145200000Y-97389709D01*
X145152897Y-97385070D01*
X145105924Y-97385070D01*
X145065368Y-97376449D01*
X145024473Y-97372422D01*
X144973091Y-97356835D01*
X144921885Y-97345951D01*
X144889115Y-97331361D01*
X144855695Y-97321223D01*
X144802585Y-97292835D01*
X144750000Y-97269423D01*
X144725552Y-97251660D01*
X144700150Y-97238083D01*
X144648332Y-97195556D01*
X144597782Y-97158830D01*
X144581368Y-97140600D01*
X144563809Y-97126190D01*
X144516618Y-97068688D01*
X144471885Y-97019007D01*
X144462487Y-97002730D01*
X144451916Y-96989849D01*
X144412810Y-96916686D01*
X144377809Y-96856063D01*
X144373782Y-96843670D01*
X144368776Y-96834304D01*
X144341168Y-96743294D01*
X144319667Y-96677121D01*
X144318910Y-96669921D01*
X144317577Y-96665526D01*
X144304606Y-96533831D01*
X144300000Y-96490000D01*
X144304606Y-96446172D01*
X144317577Y-96314473D01*
X144318910Y-96310077D01*
X144319667Y-96302879D01*
X144341163Y-96236719D01*
X144368776Y-96145695D01*
X144373783Y-96136327D01*
X144377809Y-96123937D01*
X144412802Y-96063326D01*
X144451916Y-95990150D01*
X144462489Y-95977265D01*
X144471885Y-95960993D01*
X144516609Y-95911321D01*
X144563809Y-95853809D01*
X144581371Y-95839395D01*
X144597782Y-95821170D01*
X144648321Y-95784450D01*
X144700150Y-95741916D01*
X144725557Y-95728335D01*
X144750000Y-95710577D01*
X144802573Y-95687169D01*
X144855695Y-95658776D01*
X144889122Y-95648635D01*
X144921885Y-95634049D01*
X144973080Y-95623166D01*
X145024473Y-95607577D01*
X145065377Y-95603548D01*
X145105924Y-95594930D01*
X145152887Y-95594930D01*
X145200000Y-95590290D01*
X145247113Y-95594930D01*
G37*
G36*
X148247113Y-95594930D02*
G01*
X148294076Y-95594930D01*
X148334622Y-95603548D01*
X148375526Y-95607577D01*
X148426916Y-95623166D01*
X148478115Y-95634049D01*
X148510879Y-95648636D01*
X148544304Y-95658776D01*
X148597420Y-95687166D01*
X148650000Y-95710577D01*
X148674445Y-95728337D01*
X148699849Y-95741916D01*
X148751669Y-95784444D01*
X148802218Y-95821170D01*
X148818631Y-95839398D01*
X148836190Y-95853809D01*
X148883379Y-95911308D01*
X148928115Y-95960993D01*
X148937512Y-95977269D01*
X148948083Y-95990150D01*
X148987183Y-96063302D01*
X149022191Y-96123937D01*
X149026218Y-96136331D01*
X149031223Y-96145695D01*
X149058821Y-96236672D01*
X149080333Y-96302879D01*
X149081090Y-96310082D01*
X149082422Y-96314473D01*
X149095377Y-96446021D01*
X149100000Y-96490000D01*
X149095377Y-96533982D01*
X149082422Y-96665526D01*
X149081090Y-96669916D01*
X149080333Y-96677121D01*
X149058816Y-96743341D01*
X149031223Y-96834304D01*
X149026219Y-96843665D01*
X149022191Y-96856063D01*
X148987176Y-96916709D01*
X148948083Y-96989849D01*
X148937514Y-97002726D01*
X148928115Y-97019007D01*
X148883369Y-97068701D01*
X148836190Y-97126190D01*
X148818634Y-97140597D01*
X148802218Y-97158830D01*
X148751659Y-97195563D01*
X148699849Y-97238083D01*
X148674450Y-97251658D01*
X148650000Y-97269423D01*
X148597408Y-97292838D01*
X148544304Y-97321223D01*
X148510886Y-97331360D01*
X148478115Y-97345951D01*
X148426905Y-97356836D01*
X148375526Y-97372422D01*
X148334631Y-97376449D01*
X148294076Y-97385070D01*
X148247103Y-97385070D01*
X148200000Y-97389709D01*
X148152897Y-97385070D01*
X148105924Y-97385070D01*
X148065368Y-97376449D01*
X148024473Y-97372422D01*
X147973091Y-97356835D01*
X147921885Y-97345951D01*
X147889115Y-97331361D01*
X147855695Y-97321223D01*
X147802585Y-97292835D01*
X147750000Y-97269423D01*
X147725552Y-97251660D01*
X147700150Y-97238083D01*
X147648332Y-97195556D01*
X147597782Y-97158830D01*
X147581368Y-97140600D01*
X147563809Y-97126190D01*
X147516618Y-97068688D01*
X147471885Y-97019007D01*
X147462487Y-97002730D01*
X147451916Y-96989849D01*
X147412810Y-96916686D01*
X147377809Y-96856063D01*
X147373782Y-96843670D01*
X147368776Y-96834304D01*
X147341168Y-96743294D01*
X147319667Y-96677121D01*
X147318910Y-96669921D01*
X147317577Y-96665526D01*
X147304606Y-96533831D01*
X147300000Y-96490000D01*
X147304606Y-96446172D01*
X147317577Y-96314473D01*
X147318910Y-96310077D01*
X147319667Y-96302879D01*
X147341163Y-96236719D01*
X147368776Y-96145695D01*
X147373783Y-96136327D01*
X147377809Y-96123937D01*
X147412802Y-96063326D01*
X147451916Y-95990150D01*
X147462489Y-95977265D01*
X147471885Y-95960993D01*
X147516609Y-95911321D01*
X147563809Y-95853809D01*
X147581371Y-95839395D01*
X147597782Y-95821170D01*
X147648321Y-95784450D01*
X147700150Y-95741916D01*
X147725557Y-95728335D01*
X147750000Y-95710577D01*
X147802573Y-95687169D01*
X147855695Y-95658776D01*
X147889122Y-95648635D01*
X147921885Y-95634049D01*
X147973080Y-95623166D01*
X148024473Y-95607577D01*
X148065377Y-95603548D01*
X148105924Y-95594930D01*
X148152887Y-95594930D01*
X148200000Y-95590290D01*
X148247113Y-95594930D01*
G37*
G36*
X151247113Y-95594930D02*
G01*
X151294076Y-95594930D01*
X151334622Y-95603548D01*
X151375526Y-95607577D01*
X151426916Y-95623166D01*
X151478115Y-95634049D01*
X151510879Y-95648636D01*
X151544304Y-95658776D01*
X151597420Y-95687166D01*
X151650000Y-95710577D01*
X151674445Y-95728337D01*
X151699849Y-95741916D01*
X151751669Y-95784444D01*
X151802218Y-95821170D01*
X151818631Y-95839398D01*
X151836190Y-95853809D01*
X151883379Y-95911308D01*
X151928115Y-95960993D01*
X151937512Y-95977269D01*
X151948083Y-95990150D01*
X151987183Y-96063302D01*
X152022191Y-96123937D01*
X152026218Y-96136331D01*
X152031223Y-96145695D01*
X152058821Y-96236672D01*
X152080333Y-96302879D01*
X152081090Y-96310082D01*
X152082422Y-96314473D01*
X152095377Y-96446021D01*
X152100000Y-96490000D01*
X152095377Y-96533982D01*
X152082422Y-96665526D01*
X152081090Y-96669916D01*
X152080333Y-96677121D01*
X152058816Y-96743341D01*
X152031223Y-96834304D01*
X152026219Y-96843665D01*
X152022191Y-96856063D01*
X151987176Y-96916709D01*
X151948083Y-96989849D01*
X151937514Y-97002726D01*
X151928115Y-97019007D01*
X151883369Y-97068701D01*
X151836190Y-97126190D01*
X151818634Y-97140597D01*
X151802218Y-97158830D01*
X151751659Y-97195563D01*
X151699849Y-97238083D01*
X151674450Y-97251658D01*
X151650000Y-97269423D01*
X151597408Y-97292838D01*
X151544304Y-97321223D01*
X151510886Y-97331360D01*
X151478115Y-97345951D01*
X151426905Y-97356836D01*
X151375526Y-97372422D01*
X151334631Y-97376449D01*
X151294076Y-97385070D01*
X151247103Y-97385070D01*
X151200000Y-97389709D01*
X151152897Y-97385070D01*
X151105924Y-97385070D01*
X151065368Y-97376449D01*
X151024473Y-97372422D01*
X150973091Y-97356835D01*
X150921885Y-97345951D01*
X150889115Y-97331361D01*
X150855695Y-97321223D01*
X150802585Y-97292835D01*
X150750000Y-97269423D01*
X150725552Y-97251660D01*
X150700150Y-97238083D01*
X150648332Y-97195556D01*
X150597782Y-97158830D01*
X150581368Y-97140600D01*
X150563809Y-97126190D01*
X150516618Y-97068688D01*
X150471885Y-97019007D01*
X150462487Y-97002730D01*
X150451916Y-96989849D01*
X150412810Y-96916686D01*
X150377809Y-96856063D01*
X150373782Y-96843670D01*
X150368776Y-96834304D01*
X150341168Y-96743294D01*
X150319667Y-96677121D01*
X150318910Y-96669921D01*
X150317577Y-96665526D01*
X150304606Y-96533831D01*
X150300000Y-96490000D01*
X150304606Y-96446172D01*
X150317577Y-96314473D01*
X150318910Y-96310077D01*
X150319667Y-96302879D01*
X150341163Y-96236719D01*
X150368776Y-96145695D01*
X150373783Y-96136327D01*
X150377809Y-96123937D01*
X150412802Y-96063326D01*
X150451916Y-95990150D01*
X150462489Y-95977265D01*
X150471885Y-95960993D01*
X150516609Y-95911321D01*
X150563809Y-95853809D01*
X150581371Y-95839395D01*
X150597782Y-95821170D01*
X150648321Y-95784450D01*
X150700150Y-95741916D01*
X150725557Y-95728335D01*
X150750000Y-95710577D01*
X150802573Y-95687169D01*
X150855695Y-95658776D01*
X150889122Y-95648635D01*
X150921885Y-95634049D01*
X150973080Y-95623166D01*
X151024473Y-95607577D01*
X151065377Y-95603548D01*
X151105924Y-95594930D01*
X151152887Y-95594930D01*
X151200000Y-95590290D01*
X151247113Y-95594930D01*
G37*
G36*
X227262664Y-95731602D02*
G01*
X227425000Y-95803878D01*
X227568761Y-95908327D01*
X227687664Y-96040383D01*
X227776514Y-96194274D01*
X227831425Y-96363275D01*
X227850000Y-96540000D01*
X227831425Y-96716725D01*
X227776514Y-96885726D01*
X227687664Y-97039617D01*
X227568761Y-97171673D01*
X227425000Y-97276122D01*
X227262664Y-97348398D01*
X227088849Y-97385344D01*
X226911151Y-97385344D01*
X226737336Y-97348398D01*
X226575000Y-97276122D01*
X226431239Y-97171673D01*
X226312336Y-97039617D01*
X226223486Y-96885726D01*
X226168575Y-96716725D01*
X226150000Y-96540000D01*
X226168575Y-96363275D01*
X226223486Y-96194274D01*
X226312336Y-96040383D01*
X226431239Y-95908327D01*
X226575000Y-95803878D01*
X226737336Y-95731602D01*
X226911151Y-95694656D01*
X227088849Y-95694656D01*
X227262664Y-95731602D01*
G37*
G36*
X215962664Y-94401602D02*
G01*
X216125000Y-94473878D01*
X216268761Y-94578327D01*
X216387664Y-94710383D01*
X216476514Y-94864274D01*
X216531425Y-95033275D01*
X216550000Y-95210000D01*
X216531425Y-95386725D01*
X216476514Y-95555726D01*
X216387664Y-95709617D01*
X216268761Y-95841673D01*
X216125000Y-95946122D01*
X215962664Y-96018398D01*
X215788849Y-96055344D01*
X215611151Y-96055344D01*
X215437336Y-96018398D01*
X215275000Y-95946122D01*
X215131239Y-95841673D01*
X215012336Y-95709617D01*
X214923486Y-95555726D01*
X214868575Y-95386725D01*
X214850000Y-95210000D01*
X214868575Y-95033275D01*
X214923486Y-94864274D01*
X215012336Y-94710383D01*
X215131239Y-94578327D01*
X215275000Y-94473878D01*
X215437336Y-94401602D01*
X215611151Y-94364656D01*
X215788849Y-94364656D01*
X215962664Y-94401602D01*
G37*
G36*
X218502664Y-94401602D02*
G01*
X218665000Y-94473878D01*
X218808761Y-94578327D01*
X218927664Y-94710383D01*
X219016514Y-94864274D01*
X219071425Y-95033275D01*
X219090000Y-95210000D01*
X219071425Y-95386725D01*
X219016514Y-95555726D01*
X218927664Y-95709617D01*
X218808761Y-95841673D01*
X218665000Y-95946122D01*
X218502664Y-96018398D01*
X218328849Y-96055344D01*
X218151151Y-96055344D01*
X217977336Y-96018398D01*
X217815000Y-95946122D01*
X217671239Y-95841673D01*
X217552336Y-95709617D01*
X217463486Y-95555726D01*
X217408575Y-95386725D01*
X217390000Y-95210000D01*
X217408575Y-95033275D01*
X217463486Y-94864274D01*
X217552336Y-94710383D01*
X217671239Y-94578327D01*
X217815000Y-94473878D01*
X217977336Y-94401602D01*
X218151151Y-94364656D01*
X218328849Y-94364656D01*
X218502664Y-94401602D01*
G37*
G36*
X227850000Y-94850000D02*
G01*
X226150000Y-94850000D01*
X226150000Y-93150000D01*
X227850000Y-93150000D01*
X227850000Y-94850000D01*
G37*
G36*
X215962664Y-91861602D02*
G01*
X216125000Y-91933878D01*
X216268761Y-92038327D01*
X216387664Y-92170383D01*
X216476514Y-92324274D01*
X216531425Y-92493275D01*
X216550000Y-92670000D01*
X216531425Y-92846725D01*
X216476514Y-93015726D01*
X216387664Y-93169617D01*
X216268761Y-93301673D01*
X216125000Y-93406122D01*
X215962664Y-93478398D01*
X215788849Y-93515344D01*
X215611151Y-93515344D01*
X215437336Y-93478398D01*
X215275000Y-93406122D01*
X215131239Y-93301673D01*
X215012336Y-93169617D01*
X214923486Y-93015726D01*
X214868575Y-92846725D01*
X214850000Y-92670000D01*
X214868575Y-92493275D01*
X214923486Y-92324274D01*
X215012336Y-92170383D01*
X215131239Y-92038327D01*
X215275000Y-91933878D01*
X215437336Y-91861602D01*
X215611151Y-91824656D01*
X215788849Y-91824656D01*
X215962664Y-91861602D01*
G37*
G36*
X218502664Y-91861602D02*
G01*
X218665000Y-91933878D01*
X218808761Y-92038327D01*
X218927664Y-92170383D01*
X219016514Y-92324274D01*
X219071425Y-92493275D01*
X219090000Y-92670000D01*
X219071425Y-92846725D01*
X219016514Y-93015726D01*
X218927664Y-93169617D01*
X218808761Y-93301673D01*
X218665000Y-93406122D01*
X218502664Y-93478398D01*
X218328849Y-93515344D01*
X218151151Y-93515344D01*
X217977336Y-93478398D01*
X217815000Y-93406122D01*
X217671239Y-93301673D01*
X217552336Y-93169617D01*
X217463486Y-93015726D01*
X217408575Y-92846725D01*
X217390000Y-92670000D01*
X217408575Y-92493275D01*
X217463486Y-92324274D01*
X217552336Y-92170383D01*
X217671239Y-92038327D01*
X217815000Y-91933878D01*
X217977336Y-91861602D01*
X218151151Y-91824656D01*
X218328849Y-91824656D01*
X218502664Y-91861602D01*
G37*
G36*
X211166891Y-89568804D02*
G01*
X211325413Y-89624273D01*
X211467617Y-89713626D01*
X211586374Y-89832383D01*
X211675727Y-89974587D01*
X211731196Y-90133109D01*
X211750000Y-90300000D01*
X211731196Y-90466891D01*
X211675727Y-90625413D01*
X211586374Y-90767617D01*
X211467617Y-90886374D01*
X211325413Y-90975727D01*
X211166891Y-91031196D01*
X211000000Y-91050000D01*
X210833109Y-91031196D01*
X210674587Y-90975727D01*
X210532383Y-90886374D01*
X210413626Y-90767617D01*
X210324273Y-90625413D01*
X210268804Y-90466891D01*
X210250000Y-90300000D01*
X210268804Y-90133109D01*
X210324273Y-89974587D01*
X210413626Y-89832383D01*
X210532383Y-89713626D01*
X210674587Y-89624273D01*
X210833109Y-89568804D01*
X211000000Y-89550000D01*
X211166891Y-89568804D01*
G37*
G36*
X215962664Y-89321602D02*
G01*
X216125000Y-89393878D01*
X216268761Y-89498327D01*
X216387664Y-89630383D01*
X216476514Y-89784274D01*
X216531425Y-89953275D01*
X216550000Y-90130000D01*
X216531425Y-90306725D01*
X216476514Y-90475726D01*
X216387664Y-90629617D01*
X216268761Y-90761673D01*
X216125000Y-90866122D01*
X215962664Y-90938398D01*
X215788849Y-90975344D01*
X215611151Y-90975344D01*
X215437336Y-90938398D01*
X215275000Y-90866122D01*
X215131239Y-90761673D01*
X215012336Y-90629617D01*
X214923486Y-90475726D01*
X214868575Y-90306725D01*
X214850000Y-90130000D01*
X214868575Y-89953275D01*
X214923486Y-89784274D01*
X215012336Y-89630383D01*
X215131239Y-89498327D01*
X215275000Y-89393878D01*
X215437336Y-89321602D01*
X215611151Y-89284656D01*
X215788849Y-89284656D01*
X215962664Y-89321602D01*
G37*
G36*
X218502664Y-89321602D02*
G01*
X218665000Y-89393878D01*
X218808761Y-89498327D01*
X218927664Y-89630383D01*
X219016514Y-89784274D01*
X219071425Y-89953275D01*
X219090000Y-90130000D01*
X219071425Y-90306725D01*
X219016514Y-90475726D01*
X218927664Y-90629617D01*
X218808761Y-90761673D01*
X218665000Y-90866122D01*
X218502664Y-90938398D01*
X218328849Y-90975344D01*
X218151151Y-90975344D01*
X217977336Y-90938398D01*
X217815000Y-90866122D01*
X217671239Y-90761673D01*
X217552336Y-90629617D01*
X217463486Y-90475726D01*
X217408575Y-90306725D01*
X217390000Y-90130000D01*
X217408575Y-89953275D01*
X217463486Y-89784274D01*
X217552336Y-89630383D01*
X217671239Y-89498327D01*
X217815000Y-89393878D01*
X217977336Y-89321602D01*
X218151151Y-89284656D01*
X218328849Y-89284656D01*
X218502664Y-89321602D01*
G37*
G36*
X216550000Y-88440000D02*
G01*
X214850000Y-88440000D01*
X214850000Y-86740000D01*
X216550000Y-86740000D01*
X216550000Y-88440000D01*
G37*
G36*
X218502664Y-86781602D02*
G01*
X218665000Y-86853878D01*
X218808761Y-86958327D01*
X218927664Y-87090383D01*
X219016514Y-87244274D01*
X219071425Y-87413275D01*
X219090000Y-87590000D01*
X219071425Y-87766725D01*
X219016514Y-87935726D01*
X218927664Y-88089617D01*
X218808761Y-88221673D01*
X218665000Y-88326122D01*
X218502664Y-88398398D01*
X218328849Y-88435344D01*
X218151151Y-88435344D01*
X217977336Y-88398398D01*
X217815000Y-88326122D01*
X217671239Y-88221673D01*
X217552336Y-88089617D01*
X217463486Y-87935726D01*
X217408575Y-87766725D01*
X217390000Y-87590000D01*
X217408575Y-87413275D01*
X217463486Y-87244274D01*
X217552336Y-87090383D01*
X217671239Y-86958327D01*
X217815000Y-86853878D01*
X217977336Y-86781602D01*
X218151151Y-86744656D01*
X218328849Y-86744656D01*
X218502664Y-86781602D01*
G37*
M02*
